<svg xmlns="http://www.w3.org/2000/svg" xmlns:xlink="http://www.w3.org/1999/xlink" width="700" zoomAndPan="magnify" viewBox="0 0 525 344.999992" height="460" preserveAspectRatio="xMidYMid meet" version="1.2"><defs/><g id="25b2c4fb1c"><rect x="0" width="525" y="0" height="344.999992" style="fill:#ffffff;fill-opacity:1;stroke:none;"/><rect x="0" width="525" y="0" height="344.999992" style="fill:#ffffff;fill-opacity:1;stroke:none;"/><g style="fill:#ffffff;fill-opacity:1;"><g transform="translate(193.131922, 101.398227)"><path style="stroke:none" d="M 53.9375 -11.65625 L 44.90625 -11.65625 L 44.90625 0 L 32.359375 0 L 32.359375 -11.65625 L 2.453125 -11.65625 L 2.453125 -20.3125 L 28.640625 -55.53125 L 42.125 -55.53125 L 17.84375 -22.125 L 32.765625 -22.125 L 32.765625 -32.53125 L 44.90625 -32.53125 L 44.90625 -22.125 L 53.9375 -22.125 Z M 53.9375 -11.65625 "/></g></g><g style="fill:#ffffff;fill-opacity:1;"><g transform="translate(247.785455, 101.398227)"><path style="stroke:none" d="M 29.03125 -32.921875 C 33.894531 -32.128906 37.625 -30.316406 40.21875 -27.484375 C 42.8125 -24.660156 44.109375 -21.15625 44.109375 -16.96875 C 44.109375 -13.75 43.257812 -10.773438 41.5625 -8.046875 C 39.875 -5.328125 37.296875 -3.144531 33.828125 -1.5 C 30.367188 0.132812 26.125 0.953125 21.09375 0.953125 C 17.1875 0.953125 13.34375 0.4375 9.5625 -0.59375 C 5.78125 -1.625 2.566406 -3.09375 -0.078125 -5 L 4.921875 -14.828125 C 7.035156 -13.242188 9.476562 -12.015625 12.25 -11.140625 C 15.03125 -10.273438 17.875 -9.84375 20.78125 -9.84375 C 24.007812 -9.84375 26.546875 -10.460938 28.390625 -11.703125 C 30.242188 -12.941406 31.171875 -14.695312 31.171875 -16.96875 C 31.171875 -21.519531 27.707031 -23.796875 20.78125 -23.796875 L 14.90625 -23.796875 L 14.90625 -32.28125 L 26.34375 -45.21875 L 2.703125 -45.21875 L 2.703125 -55.53125 L 41.5625 -55.53125 L 41.5625 -47.203125 Z M 29.03125 -32.921875 "/></g></g><g style="fill:#ffffff;fill-opacity:1;"><g transform="translate(294.744664, 101.398227)"><path style="stroke:none" d="M 46.5625 -55.53125 L 46.5625 -47.203125 L 25.9375 0 L 11.984375 0 L 31.890625 -45.0625 L 13.484375 -45.0625 L 13.484375 -36.015625 L 2.0625 -36.015625 L 2.0625 -55.53125 Z M 46.5625 -55.53125 "/></g></g><g style="fill:#ffffff;fill-opacity:1;"><g transform="translate(151.305875, 95.881515)"><path style="stroke:none" d="M 13.453125 0 L 10.015625 -4.953125 L 6.234375 -4.953125 L 6.234375 0 L 2.109375 0 L 2.109375 -17.8125 L 9.8125 -17.8125 C 11.394531 -17.8125 12.765625 -17.546875 13.921875 -17.015625 C 15.085938 -16.492188 15.984375 -15.75 16.609375 -14.78125 C 17.234375 -13.8125 17.546875 -12.664062 17.546875 -11.34375 C 17.546875 -10.019531 17.226562 -8.878906 16.59375 -7.921875 C 15.957031 -6.960938 15.054688 -6.226562 13.890625 -5.71875 L 17.875 0 Z M 13.375 -11.34375 C 13.375 -12.34375 13.050781 -13.109375 12.40625 -13.640625 C 11.769531 -14.179688 10.832031 -14.453125 9.59375 -14.453125 L 6.234375 -14.453125 L 6.234375 -8.234375 L 9.59375 -8.234375 C 10.832031 -8.234375 11.769531 -8.503906 12.40625 -9.046875 C 13.050781 -9.597656 13.375 -10.363281 13.375 -11.34375 Z M 13.375 -11.34375 "/></g></g><g style="fill:#ffffff;fill-opacity:1;"><g transform="translate(170.004403, 95.881515)"><path style="stroke:none" d="M 15.515625 -5.21875 C 15.515625 -3.820312 15.003906 -2.628906 13.984375 -1.640625 C 12.972656 -0.648438 11.507812 -0.0351562 9.59375 0.203125 L 9.59375 3.046875 L 7.046875 3.046875 L 7.046875 0.28125 C 5.785156 0.207031 4.585938 -0.0078125 3.453125 -0.375 C 2.316406 -0.75 1.40625 -1.207031 0.71875 -1.75 L 2.109375 -4.859375 C 2.753906 -4.378906 3.507812 -3.976562 4.375 -3.65625 C 5.238281 -3.34375 6.128906 -3.140625 7.046875 -3.046875 L 7.046875 -7.296875 C 5.835938 -7.585938 4.816406 -7.910156 3.984375 -8.265625 C 3.160156 -8.617188 2.46875 -9.140625 1.90625 -9.828125 C 1.34375 -10.515625 1.0625 -11.425781 1.0625 -12.5625 C 1.0625 -13.96875 1.570312 -15.175781 2.59375 -16.1875 C 3.625 -17.195312 5.109375 -17.8125 7.046875 -18.03125 L 7.046875 -20.859375 L 9.59375 -20.859375 L 9.59375 -18.09375 C 11.675781 -17.914062 13.394531 -17.394531 14.75 -16.53125 L 13.484375 -13.40625 C 12.210938 -14.132812 10.914062 -14.578125 9.59375 -14.734375 L 9.59375 -10.40625 C 10.78125 -10.132812 11.785156 -9.820312 12.609375 -9.46875 C 13.429688 -9.125 14.117188 -8.609375 14.671875 -7.921875 C 15.234375 -7.234375 15.515625 -6.332031 15.515625 -5.21875 Z M 5.15625 -12.765625 C 5.15625 -12.347656 5.316406 -12 5.640625 -11.71875 C 5.960938 -11.445312 6.429688 -11.222656 7.046875 -11.046875 L 7.046875 -14.65625 C 6.398438 -14.5 5.921875 -14.253906 5.609375 -13.921875 C 5.304688 -13.597656 5.15625 -13.210938 5.15625 -12.765625 Z M 9.59375 -3.15625 C 10.195312 -3.289062 10.648438 -3.507812 10.953125 -3.8125 C 11.265625 -4.125 11.421875 -4.488281 11.421875 -4.90625 C 11.421875 -5.332031 11.265625 -5.679688 10.953125 -5.953125 C 10.640625 -6.222656 10.1875 -6.460938 9.59375 -6.671875 Z M 9.59375 -3.15625 "/></g></g><g style="fill:#ffffff;fill-opacity:1;"><g transform="translate(337.279232, 77.495198)"><path style="stroke:none" d="M 4.140625 -5.828125 C 5.015625 -5.828125 5.734375 -5.550781 6.296875 -5 C 6.859375 -4.445312 7.140625 -3.71875 7.140625 -2.8125 C 7.140625 -2.394531 7.085938 -1.976562 6.984375 -1.5625 C 6.878906 -1.144531 6.648438 -0.519531 6.296875 0.3125 L 4.515625 4.828125 L 1.40625 4.828125 L 2.78125 -0.15625 C 2.257812 -0.363281 1.847656 -0.703125 1.546875 -1.171875 C 1.242188 -1.640625 1.09375 -2.1875 1.09375 -2.8125 C 1.09375 -3.71875 1.378906 -4.445312 1.953125 -5 C 2.523438 -5.550781 3.253906 -5.828125 4.140625 -5.828125 Z M 4.140625 -5.828125 "/></g></g><g style="fill:#ffffff;fill-opacity:1;"><g transform="translate(343.51288, 77.495198)"><path style="stroke:none" d="M 10.625 0.375 C 8.800781 0.375 7.179688 -0.0703125 5.765625 -0.96875 C 4.347656 -1.863281 3.234375 -3.160156 2.421875 -4.859375 C 1.617188 -6.566406 1.21875 -8.601562 1.21875 -10.96875 C 1.21875 -13.320312 1.617188 -15.347656 2.421875 -17.046875 C 3.234375 -18.753906 4.347656 -20.054688 5.765625 -20.953125 C 7.179688 -21.859375 8.800781 -22.3125 10.625 -22.3125 C 12.4375 -22.3125 14.050781 -21.859375 15.46875 -20.953125 C 16.894531 -20.054688 18.007812 -18.753906 18.8125 -17.046875 C 19.613281 -15.347656 20.015625 -13.320312 20.015625 -10.96875 C 20.015625 -8.601562 19.613281 -6.566406 18.8125 -4.859375 C 18.007812 -3.160156 16.894531 -1.863281 15.46875 -0.96875 C 14.050781 -0.0703125 12.4375 0.375 10.625 0.375 Z M 10.625 -3.921875 C 11.957031 -3.921875 13.003906 -4.492188 13.765625 -5.640625 C 14.523438 -6.785156 14.90625 -8.5625 14.90625 -10.96875 C 14.90625 -13.363281 14.523438 -15.132812 13.765625 -16.28125 C 13.003906 -17.4375 11.957031 -18.015625 10.625 -18.015625 C 9.300781 -18.015625 8.257812 -17.4375 7.5 -16.28125 C 6.738281 -15.132812 6.359375 -13.363281 6.359375 -10.96875 C 6.359375 -8.5625 6.738281 -6.785156 7.5 -5.640625 C 8.257812 -4.492188 9.300781 -3.921875 10.625 -3.921875 Z M 10.625 -3.921875 "/></g></g><g style="fill:#ffffff;fill-opacity:1;"><g transform="translate(362.809591, 77.495198)"><path style="stroke:none" d="M 10.625 0.375 C 8.800781 0.375 7.179688 -0.0703125 5.765625 -0.96875 C 4.347656 -1.863281 3.234375 -3.160156 2.421875 -4.859375 C 1.617188 -6.566406 1.21875 -8.601562 1.21875 -10.96875 C 1.21875 -13.320312 1.617188 -15.347656 2.421875 -17.046875 C 3.234375 -18.753906 4.347656 -20.054688 5.765625 -20.953125 C 7.179688 -21.859375 8.800781 -22.3125 10.625 -22.3125 C 12.4375 -22.3125 14.050781 -21.859375 15.46875 -20.953125 C 16.894531 -20.054688 18.007812 -18.753906 18.8125 -17.046875 C 19.613281 -15.347656 20.015625 -13.320312 20.015625 -10.96875 C 20.015625 -8.601562 19.613281 -6.566406 18.8125 -4.859375 C 18.007812 -3.160156 16.894531 -1.863281 15.46875 -0.96875 C 14.050781 -0.0703125 12.4375 0.375 10.625 0.375 Z M 10.625 -3.921875 C 11.957031 -3.921875 13.003906 -4.492188 13.765625 -5.640625 C 14.523438 -6.785156 14.90625 -8.5625 14.90625 -10.96875 C 14.90625 -13.363281 14.523438 -15.132812 13.765625 -16.28125 C 13.003906 -17.4375 11.957031 -18.015625 10.625 -18.015625 C 9.300781 -18.015625 8.257812 -17.4375 7.5 -16.28125 C 6.738281 -15.132812 6.359375 -13.363281 6.359375 -10.96875 C 6.359375 -8.5625 6.738281 -6.785156 7.5 -5.640625 C 8.257812 -4.492188 9.300781 -3.921875 10.625 -3.921875 Z M 10.625 -3.921875 "/></g></g><path style="fill:none;stroke-width:12;stroke-linecap:butt;stroke-linejoin:miter;stroke:#d0a944;stroke-opacity:1;stroke-miterlimit:4;" d="M 0.000087229 6.000614 L 357.462947 6.002054 " transform="matrix(0.716157,-0.21953,0.21953,0.716157,133.018562,112.487791)"/><g style="fill:#ffffff;fill-opacity:1;"><g transform="translate(155.761667, 73.326772)"><path style="stroke:none" d="M 12.203125 -14.59375 L 12.203125 0 L 9.265625 0 L 9.265625 -1.21875 C 8.503906 -0.300781 7.398438 0.15625 5.953125 0.15625 C 4.960938 0.15625 4.0625 -0.0664062 3.25 -0.515625 C 2.445312 -0.960938 1.816406 -1.597656 1.359375 -2.421875 C 0.898438 -3.242188 0.671875 -4.203125 0.671875 -5.296875 C 0.671875 -6.378906 0.898438 -7.332031 1.359375 -8.15625 C 1.816406 -8.988281 2.445312 -9.625 3.25 -10.0625 C 4.0625 -10.507812 4.960938 -10.734375 5.953125 -10.734375 C 7.304688 -10.734375 8.363281 -10.3125 9.125 -9.46875 L 9.125 -14.59375 Z M 6.484375 -2.359375 C 7.265625 -2.359375 7.910156 -2.625 8.421875 -3.15625 C 8.929688 -3.6875 9.1875 -4.398438 9.1875 -5.296875 C 9.1875 -6.179688 8.929688 -6.890625 8.421875 -7.421875 C 7.910156 -7.953125 7.265625 -8.21875 6.484375 -8.21875 C 5.703125 -8.21875 5.054688 -7.953125 4.546875 -7.421875 C 4.035156 -6.890625 3.78125 -6.179688 3.78125 -5.296875 C 3.78125 -4.398438 4.035156 -3.6875 4.546875 -3.15625 C 5.054688 -2.625 5.703125 -2.359375 6.484375 -2.359375 Z M 6.484375 -2.359375 "/></g></g><g style="fill:#ffffff;fill-opacity:1;"><g transform="translate(169.366317, 73.326772)"><path style="stroke:none" d="M 11.78125 -5.25 C 11.78125 -5.207031 11.757812 -4.929688 11.71875 -4.421875 L 3.71875 -4.421875 C 3.863281 -3.765625 4.203125 -3.242188 4.734375 -2.859375 C 5.273438 -2.484375 5.945312 -2.296875 6.75 -2.296875 C 7.300781 -2.296875 7.789062 -2.378906 8.21875 -2.546875 C 8.644531 -2.710938 9.039062 -2.972656 9.40625 -3.328125 L 11.03125 -1.546875 C 10.039062 -0.410156 8.585938 0.15625 6.671875 0.15625 C 5.472656 0.15625 4.414062 -0.0703125 3.5 -0.53125 C 2.582031 -1 1.875 -1.644531 1.375 -2.46875 C 0.875 -3.300781 0.625 -4.242188 0.625 -5.296875 C 0.625 -6.328125 0.867188 -7.257812 1.359375 -8.09375 C 1.859375 -8.925781 2.535156 -9.570312 3.390625 -10.03125 C 4.253906 -10.5 5.21875 -10.734375 6.28125 -10.734375 C 7.3125 -10.734375 8.242188 -10.507812 9.078125 -10.0625 C 9.921875 -9.625 10.582031 -8.988281 11.0625 -8.15625 C 11.539062 -7.320312 11.78125 -6.351562 11.78125 -5.25 Z M 6.296875 -8.421875 C 5.597656 -8.421875 5.015625 -8.222656 4.546875 -7.828125 C 4.078125 -7.429688 3.785156 -6.894531 3.671875 -6.21875 L 8.890625 -6.21875 C 8.785156 -6.882812 8.492188 -7.414062 8.015625 -7.8125 C 7.546875 -8.21875 6.972656 -8.421875 6.296875 -8.421875 Z M 6.296875 -8.421875 "/></g></g><g style="fill:#d0a944;fill-opacity:1;"><g transform="translate(121.113874, 233.2713)"><path style="stroke:none" d="M 52.21875 -59.203125 C 60.96875 -57.773438 67.671875 -54.515625 72.328125 -49.421875 C 76.992188 -44.335938 79.328125 -38.039062 79.328125 -30.53125 C 79.328125 -24.726562 77.800781 -19.378906 74.75 -14.484375 C 71.707031 -9.585938 67.070312 -5.660156 60.84375 -2.703125 C 54.613281 0.242188 46.984375 1.71875 37.953125 1.71875 C 30.910156 1.71875 23.988281 0.789062 17.1875 -1.0625 C 10.382812 -2.925781 4.609375 -5.566406 -0.140625 -8.984375 L 8.84375 -26.671875 C 12.644531 -23.828125 17.039062 -21.617188 22.03125 -20.046875 C 27.03125 -18.472656 32.144531 -17.6875 37.375 -17.6875 C 43.175781 -17.6875 47.738281 -18.800781 51.0625 -21.03125 C 54.394531 -23.269531 56.0625 -26.4375 56.0625 -30.53125 C 56.0625 -38.707031 49.832031 -42.796875 37.375 -42.796875 L 26.828125 -42.796875 L 26.828125 -58.0625 L 47.359375 -81.328125 L 4.84375 -81.328125 L 4.84375 -99.875 L 74.765625 -99.875 L 74.765625 -84.890625 Z M 52.21875 -59.203125 "/></g></g><g style="fill:#d0a944;fill-opacity:1;"><g transform="translate(205.556982, 233.2713)"><path style="stroke:none" d="M 97.015625 -20.96875 L 80.75 -20.96875 L 80.75 0 L 58.203125 0 L 58.203125 -20.96875 L 4.421875 -20.96875 L 4.421875 -36.53125 L 51.5 -99.875 L 75.765625 -99.875 L 32.09375 -39.8125 L 58.921875 -39.8125 L 58.921875 -58.5 L 80.75 -58.5 L 80.75 -39.8125 L 97.015625 -39.8125 Z M 97.015625 -20.96875 "/></g></g><g style="fill:#d0a944;fill-opacity:1;"><g transform="translate(303.836202, 233.2713)"><path style="stroke:none" d="M 40.65625 -101.578125 C 54.644531 -101.578125 65.582031 -97.320312 73.46875 -88.8125 C 81.363281 -80.300781 85.3125 -68.054688 85.3125 -52.078125 C 85.3125 -40.753906 83.195312 -31.050781 78.96875 -22.96875 C 74.738281 -14.882812 68.769531 -8.75 61.0625 -4.5625 C 53.351562 -0.375 44.460938 1.71875 34.390625 1.71875 C 29.054688 1.71875 23.960938 1.125 19.109375 -0.0625 C 14.265625 -1.257812 10.128906 -2.953125 6.703125 -5.140625 L 15.265625 -22.109375 C 20.117188 -18.785156 26.347656 -17.125 33.953125 -17.125 C 42.421875 -17.125 49.125 -19.617188 54.0625 -24.609375 C 59.007812 -29.597656 61.675781 -36.800781 62.0625 -46.21875 C 56.070312 -40.226562 47.796875 -37.234375 37.234375 -37.234375 C 30.859375 -37.234375 25.054688 -38.515625 19.828125 -41.078125 C 14.597656 -43.648438 10.460938 -47.289062 7.421875 -52 C 4.378906 -56.707031 2.859375 -62.15625 2.859375 -68.34375 C 2.859375 -75 4.519531 -80.847656 7.84375 -85.890625 C 11.175781 -90.929688 15.71875 -94.804688 21.46875 -97.515625 C 27.226562 -100.222656 33.625 -101.578125 40.65625 -101.578125 Z M 42.375 -54.5 C 47.414062 -54.5 51.53125 -55.898438 54.71875 -58.703125 C 57.90625 -61.515625 59.5 -65.109375 59.5 -69.484375 C 59.5 -73.859375 57.953125 -77.421875 54.859375 -80.171875 C 51.765625 -82.929688 47.507812 -84.3125 42.09375 -84.3125 C 37.144531 -84.3125 33.125 -82.976562 30.03125 -80.3125 C 26.9375 -77.65625 25.390625 -74.046875 25.390625 -69.484375 C 25.390625 -64.921875 26.9375 -61.28125 30.03125 -58.5625 C 33.125 -55.851562 37.238281 -54.5 42.375 -54.5 Z M 42.375 -54.5 "/></g></g><g style="fill:#d0a944;fill-opacity:1;"><g transform="translate(48.789627, 219.083315)"><path style="stroke:none" d="M 23.484375 0 L 17.140625 -8.921875 C 16.421875 -8.847656 15.679688 -8.8125 14.921875 -8.8125 L 7.453125 -8.8125 L 7.453125 0 L 4.515625 0 L 4.515625 -27.765625 L 14.921875 -27.765625 C 18.460938 -27.765625 21.238281 -26.914062 23.25 -25.21875 C 25.257812 -23.53125 26.265625 -21.207031 26.265625 -18.25 C 26.265625 -16.082031 25.710938 -14.25 24.609375 -12.75 C 23.515625 -11.257812 21.953125 -10.179688 19.921875 -9.515625 L 26.703125 0 Z M 14.84375 -11.3125 C 17.59375 -11.3125 19.691406 -11.914062 21.140625 -13.125 C 22.597656 -14.34375 23.328125 -16.050781 23.328125 -18.25 C 23.328125 -20.5 22.597656 -22.222656 21.140625 -23.421875 C 19.691406 -24.628906 17.59375 -25.234375 14.84375 -25.234375 L 7.453125 -25.234375 L 7.453125 -11.3125 Z M 14.84375 -11.3125 "/></g></g><g style="fill:#d0a944;fill-opacity:1;"><g transform="translate(77.467813, 219.083315)"><path style="stroke:none" d="M 22.53125 -7.34375 C 22.53125 -5.300781 21.75 -3.570312 20.1875 -2.15625 C 18.632812 -0.75 16.347656 0.0351562 13.328125 0.203125 L 13.328125 4.765625 L 11.34375 4.765625 L 11.34375 0.234375 C 9.414062 0.128906 7.597656 -0.242188 5.890625 -0.890625 C 4.179688 -1.535156 2.835938 -2.363281 1.859375 -3.375 L 3.015625 -5.640625 C 3.941406 -4.734375 5.148438 -3.972656 6.640625 -3.359375 C 8.140625 -2.753906 9.707031 -2.398438 11.34375 -2.296875 L 11.34375 -12.734375 C 9.519531 -13.179688 8 -13.660156 6.78125 -14.171875 C 5.5625 -14.691406 4.546875 -15.445312 3.734375 -16.4375 C 2.929688 -17.4375 2.53125 -18.753906 2.53125 -20.390625 C 2.53125 -22.429688 3.269531 -24.144531 4.75 -25.53125 C 6.238281 -26.914062 8.4375 -27.726562 11.34375 -27.96875 L 11.34375 -32.53125 L 13.328125 -32.53125 L 13.328125 -28.015625 C 14.835938 -27.953125 16.300781 -27.703125 17.71875 -27.265625 C 19.132812 -26.835938 20.359375 -26.265625 21.390625 -25.546875 L 20.390625 -23.203125 C 19.304688 -23.890625 18.15625 -24.429688 16.9375 -24.828125 C 15.71875 -25.222656 14.515625 -25.453125 13.328125 -25.515625 L 13.328125 -15 C 15.285156 -14.519531 16.882812 -14.035156 18.125 -13.546875 C 19.375 -13.054688 20.421875 -12.304688 21.265625 -11.296875 C 22.109375 -10.296875 22.53125 -8.976562 22.53125 -7.34375 Z M 5.4375 -20.46875 C 5.4375 -19.09375 5.941406 -18.046875 6.953125 -17.328125 C 7.972656 -16.617188 9.4375 -16.015625 11.34375 -15.515625 L 11.34375 -25.421875 C 9.382812 -25.265625 7.910156 -24.726562 6.921875 -23.8125 C 5.929688 -22.90625 5.4375 -21.789062 5.4375 -20.46875 Z M 13.328125 -2.296875 C 15.421875 -2.453125 16.992188 -2.96875 18.046875 -3.84375 C 19.109375 -4.71875 19.640625 -5.832031 19.640625 -7.1875 C 19.640625 -8.613281 19.097656 -9.679688 18.015625 -10.390625 C 16.929688 -11.109375 15.367188 -11.71875 13.328125 -12.21875 Z M 13.328125 -2.296875 "/></g></g><g style="fill:#ffffff;fill-opacity:1;"><g transform="translate(47.716028, 176.16563)"><path style="stroke:none" d="M 13.09375 -18.75 C 14.832031 -18.75 16.410156 -18.351562 17.828125 -17.5625 C 19.242188 -16.769531 20.351562 -15.65625 21.15625 -14.21875 C 21.957031 -12.78125 22.359375 -11.140625 22.359375 -9.296875 C 22.359375 -7.441406 21.957031 -5.789062 21.15625 -4.34375 C 20.351562 -2.90625 19.25 -1.789062 17.84375 -1 C 16.4375 -0.21875 14.851562 0.171875 13.09375 0.171875 C 11.582031 0.171875 10.21875 -0.140625 9 -0.765625 C 7.789062 -1.390625 6.796875 -2.300781 6.015625 -3.5 L 6.015625 6.859375 L 3.5 6.859375 L 3.5 -18.609375 L 5.90625 -18.609375 L 5.90625 -14.921875 C 6.664062 -16.148438 7.660156 -17.09375 8.890625 -17.75 C 10.128906 -18.414062 11.53125 -18.75 13.09375 -18.75 Z M 12.90625 -2.046875 C 14.207031 -2.046875 15.390625 -2.347656 16.453125 -2.953125 C 17.515625 -3.554688 18.34375 -4.410156 18.9375 -5.515625 C 19.539062 -6.628906 19.84375 -7.890625 19.84375 -9.296875 C 19.84375 -10.710938 19.539062 -11.96875 18.9375 -13.0625 C 18.34375 -14.164062 17.515625 -15.023438 16.453125 -15.640625 C 15.390625 -16.253906 14.207031 -16.5625 12.90625 -16.5625 C 11.59375 -16.5625 10.410156 -16.253906 9.359375 -15.640625 C 8.304688 -15.023438 7.476562 -14.164062 6.875 -13.0625 C 6.28125 -11.96875 5.984375 -10.710938 5.984375 -9.296875 C 5.984375 -7.890625 6.28125 -6.628906 6.875 -5.515625 C 7.476562 -4.410156 8.304688 -3.554688 9.359375 -2.953125 C 10.410156 -2.347656 11.59375 -2.046875 12.90625 -2.046875 Z M 12.90625 -2.046875 "/></g></g><g style="fill:#ffffff;fill-opacity:1;"><g transform="translate(71.690745, 176.16563)"><path style="stroke:none" d="M 11.109375 0.171875 C 9.316406 0.171875 7.703125 -0.234375 6.265625 -1.046875 C 4.828125 -1.859375 3.691406 -2.984375 2.859375 -4.421875 C 2.035156 -5.859375 1.625 -7.484375 1.625 -9.296875 C 1.625 -11.117188 2.035156 -12.75 2.859375 -14.1875 C 3.691406 -15.625 4.828125 -16.742188 6.265625 -17.546875 C 7.703125 -18.347656 9.316406 -18.75 11.109375 -18.75 C 12.898438 -18.75 14.515625 -18.347656 15.953125 -17.546875 C 17.390625 -16.742188 18.515625 -15.625 19.328125 -14.1875 C 20.140625 -12.75 20.546875 -11.117188 20.546875 -9.296875 C 20.546875 -7.484375 20.140625 -5.859375 19.328125 -4.421875 C 18.515625 -2.984375 17.390625 -1.859375 15.953125 -1.046875 C 14.515625 -0.234375 12.898438 0.171875 11.109375 0.171875 Z M 11.109375 -2.046875 C 12.429688 -2.046875 13.613281 -2.347656 14.65625 -2.953125 C 15.707031 -3.554688 16.523438 -4.410156 17.109375 -5.515625 C 17.703125 -6.628906 18 -7.890625 18 -9.296875 C 18 -10.710938 17.703125 -11.972656 17.109375 -13.078125 C 16.523438 -14.191406 15.707031 -15.050781 14.65625 -15.65625 C 13.613281 -16.257812 12.429688 -16.5625 11.109375 -16.5625 C 9.785156 -16.5625 8.597656 -16.257812 7.546875 -15.65625 C 6.503906 -15.050781 5.679688 -14.191406 5.078125 -13.078125 C 4.472656 -11.972656 4.171875 -10.710938 4.171875 -9.296875 C 4.171875 -7.890625 4.472656 -6.628906 5.078125 -5.515625 C 5.679688 -4.410156 6.503906 -3.554688 7.546875 -2.953125 C 8.597656 -2.347656 9.785156 -2.046875 11.109375 -2.046875 Z M 11.109375 -2.046875 "/></g></g><g style="fill:#ffffff;fill-opacity:1;"><g transform="translate(93.862052, 176.16563)"><path style="stroke:none" d="M 5.90625 -14.96875 C 6.5 -16.21875 7.378906 -17.160156 8.546875 -17.796875 C 9.710938 -18.429688 11.15625 -18.75 12.875 -18.75 L 12.875 -16.3125 L 12.28125 -16.34375 C 10.320312 -16.34375 8.785156 -15.738281 7.671875 -14.53125 C 6.566406 -13.332031 6.015625 -11.648438 6.015625 -9.484375 L 6.015625 0 L 3.5 0 L 3.5 -18.609375 L 5.90625 -18.609375 Z M 5.90625 -14.96875 "/></g></g><g style="fill:#d0a944;fill-opacity:1;"><g transform="translate(394.572081, 188.500554)"><path style="stroke:none" d="M 6.03125 -5.859375 C 6.894531 -5.859375 7.609375 -5.566406 8.171875 -4.984375 C 8.734375 -4.398438 9.015625 -3.675781 9.015625 -2.8125 C 9.015625 -2.363281 8.945312 -1.875 8.8125 -1.34375 C 8.6875 -0.820312 8.488281 -0.222656 8.21875 0.453125 L 5.859375 8.21875 L 3.15625 8.21875 L 5.078125 0.0625 C 4.472656 -0.125 3.984375 -0.472656 3.609375 -0.984375 C 3.234375 -1.492188 3.046875 -2.101562 3.046875 -2.8125 C 3.046875 -3.675781 3.328125 -4.398438 3.890625 -4.984375 C 4.453125 -5.566406 5.164062 -5.859375 6.03125 -5.859375 Z M 6.03125 -5.859375 "/></g></g><g style="fill:#d0a944;fill-opacity:1;"><g transform="translate(406.177169, 188.500554)"><path style="stroke:none" d="M 19.265625 -23.609375 C 21.859375 -23.609375 24.160156 -23.117188 26.171875 -22.140625 C 28.179688 -21.160156 29.75 -19.78125 30.875 -18 C 32 -16.21875 32.5625 -14.144531 32.5625 -11.78125 C 32.5625 -9.375 31.976562 -7.25 30.8125 -5.40625 C 29.65625 -3.5625 28.050781 -2.140625 26 -1.140625 C 23.957031 -0.148438 21.65625 0.34375 19.09375 0.34375 C 13.875 0.34375 9.875 -1.375 7.09375 -4.8125 C 4.320312 -8.25 2.9375 -13.101562 2.9375 -19.375 C 2.9375 -23.769531 3.6875 -27.488281 5.1875 -30.53125 C 6.6875 -33.582031 8.785156 -35.882812 11.484375 -37.4375 C 14.191406 -39 17.347656 -39.78125 20.953125 -39.78125 C 24.859375 -39.78125 27.976562 -39.066406 30.3125 -37.640625 L 28.671875 -34.375 C 26.796875 -35.613281 24.242188 -36.234375 21.015625 -36.234375 C 16.660156 -36.234375 13.242188 -34.851562 10.765625 -32.09375 C 8.285156 -29.332031 7.046875 -25.320312 7.046875 -20.0625 C 7.046875 -19.125 7.101562 -18.050781 7.21875 -16.84375 C 8.1875 -18.988281 9.738281 -20.648438 11.875 -21.828125 C 14.019531 -23.015625 16.484375 -23.609375 19.265625 -23.609375 Z M 18.9375 -3.09375 C 21.789062 -3.09375 24.109375 -3.875 25.890625 -5.4375 C 27.671875 -7 28.5625 -9.070312 28.5625 -11.65625 C 28.5625 -14.25 27.671875 -16.316406 25.890625 -17.859375 C 24.109375 -19.398438 21.695312 -20.171875 18.65625 -20.171875 C 16.65625 -20.171875 14.894531 -19.796875 13.375 -19.046875 C 11.851562 -18.296875 10.660156 -17.257812 9.796875 -15.9375 C 8.941406 -14.625 8.515625 -13.160156 8.515625 -11.546875 C 8.515625 -10.046875 8.914062 -8.65625 9.71875 -7.375 C 10.53125 -6.101562 11.722656 -5.070312 13.296875 -4.28125 C 14.867188 -3.488281 16.75 -3.09375 18.9375 -3.09375 Z M 18.9375 -3.09375 "/></g></g><g style="fill:#d0a944;fill-opacity:1;"><g transform="translate(440.147524, 188.500554)"><path style="stroke:none" d="M 18.65625 0.34375 C 15.613281 0.34375 12.898438 -0.460938 10.515625 -2.078125 C 8.128906 -3.691406 6.269531 -6.007812 4.9375 -9.03125 C 3.601562 -12.0625 2.9375 -15.625 2.9375 -19.71875 C 2.9375 -23.8125 3.601562 -27.367188 4.9375 -30.390625 C 6.269531 -33.421875 8.128906 -35.742188 10.515625 -37.359375 C 12.898438 -38.972656 15.613281 -39.78125 18.65625 -39.78125 C 21.695312 -39.78125 24.410156 -38.972656 26.796875 -37.359375 C 29.179688 -35.742188 31.046875 -33.421875 32.390625 -30.390625 C 33.742188 -27.367188 34.421875 -23.8125 34.421875 -19.71875 C 34.421875 -15.625 33.742188 -12.0625 32.390625 -9.03125 C 31.046875 -6.007812 29.179688 -3.691406 26.796875 -2.078125 C 24.410156 -0.460938 21.695312 0.34375 18.65625 0.34375 Z M 18.65625 -3.375 C 20.945312 -3.375 22.960938 -4.015625 24.703125 -5.296875 C 26.453125 -6.578125 27.8125 -8.4375 28.78125 -10.875 C 29.757812 -13.3125 30.25 -16.257812 30.25 -19.71875 C 30.25 -23.175781 29.757812 -26.125 28.78125 -28.5625 C 27.8125 -31.007812 26.453125 -32.867188 24.703125 -34.140625 C 22.960938 -35.421875 20.945312 -36.0625 18.65625 -36.0625 C 16.363281 -36.0625 14.34375 -35.421875 12.59375 -34.140625 C 10.84375 -32.867188 9.476562 -31.007812 8.5 -28.5625 C 7.53125 -26.125 7.046875 -23.175781 7.046875 -19.71875 C 7.046875 -16.257812 7.53125 -13.3125 8.5 -10.875 C 9.476562 -8.4375 10.84375 -6.578125 12.59375 -5.296875 C 14.34375 -4.015625 16.363281 -3.375 18.65625 -3.375 Z M 18.65625 -3.375 "/></g></g><g style="fill:#ffffff;fill-opacity:1;"><g transform="translate(65.998898, 298.718571)"><path style="stroke:none" d="M 14.359375 0.234375 C 12.046875 0.234375 9.957031 -0.289062 8.09375 -1.34375 C 6.238281 -2.394531 4.773438 -3.847656 3.703125 -5.703125 C 2.640625 -7.566406 2.109375 -9.675781 2.109375 -12.03125 C 2.109375 -14.375 2.640625 -16.472656 3.703125 -18.328125 C 4.773438 -20.191406 6.238281 -21.640625 8.09375 -22.671875 C 9.957031 -23.710938 12.046875 -24.234375 14.359375 -24.234375 C 16.679688 -24.234375 18.769531 -23.710938 20.625 -22.671875 C 22.488281 -21.640625 23.945312 -20.191406 25 -18.328125 C 26.050781 -16.472656 26.578125 -14.375 26.578125 -12.03125 C 26.578125 -9.675781 26.050781 -7.566406 25 -5.703125 C 23.945312 -3.847656 22.488281 -2.394531 20.625 -1.34375 C 18.769531 -0.289062 16.679688 0.234375 14.359375 0.234375 Z M 14.359375 -2.65625 C 16.066406 -2.65625 17.597656 -3.039062 18.953125 -3.8125 C 20.304688 -4.59375 21.363281 -5.695312 22.125 -7.125 C 22.894531 -8.5625 23.28125 -10.195312 23.28125 -12.03125 C 23.28125 -13.851562 22.894531 -15.484375 22.125 -16.921875 C 21.363281 -18.359375 20.304688 -19.460938 18.953125 -20.234375 C 17.597656 -21.015625 16.066406 -21.40625 14.359375 -21.40625 C 12.648438 -21.40625 11.117188 -21.015625 9.765625 -20.234375 C 8.410156 -19.460938 7.34375 -18.359375 6.5625 -16.921875 C 5.78125 -15.484375 5.390625 -13.851562 5.390625 -12.03125 C 5.390625 -10.195312 5.78125 -8.5625 6.5625 -7.125 C 7.34375 -5.695312 8.410156 -4.59375 9.765625 -3.8125 C 11.117188 -3.039062 12.648438 -2.65625 14.359375 -2.65625 Z M 14.359375 -2.65625 "/></g></g><g style="fill:#ffffff;fill-opacity:1;"><g transform="translate(94.389497, 298.718571)"><path style="stroke:none" d="M 26.203125 -24.0625 L 26.203125 0 L 23.09375 0 L 23.09375 -4.390625 C 22.238281 -2.921875 21.0625 -1.78125 19.5625 -0.96875 C 18.070312 -0.164062 16.367188 0.234375 14.453125 0.234375 C 11.304688 0.234375 8.828125 -0.640625 7.015625 -2.390625 C 5.203125 -4.148438 4.296875 -6.722656 4.296875 -10.109375 L 4.296875 -24.0625 L 7.546875 -24.0625 L 7.546875 -10.421875 C 7.546875 -7.890625 8.171875 -5.96875 9.421875 -4.65625 C 10.671875 -3.351562 12.453125 -2.703125 14.765625 -2.703125 C 17.296875 -2.703125 19.289062 -3.46875 20.75 -5 C 22.21875 -6.539062 22.953125 -8.6875 22.953125 -11.4375 L 22.953125 -24.0625 Z M 26.203125 -24.0625 "/></g></g><g style="fill:#ffffff;fill-opacity:1;"><g transform="translate(124.883112, 298.718571)"><path style="stroke:none" d=""/></g></g><g style="fill:#ffffff;fill-opacity:1;"><g transform="translate(136.586757, 298.718571)"><path style="stroke:none" d="M 15.640625 -19.15625 C 17.742188 -19.15625 19.609375 -18.757812 21.234375 -17.96875 C 22.867188 -17.175781 24.144531 -16.054688 25.0625 -14.609375 C 25.976562 -13.160156 26.4375 -11.476562 26.4375 -9.5625 C 26.4375 -7.601562 25.960938 -5.878906 25.015625 -4.390625 C 24.066406 -2.898438 22.757812 -1.75 21.09375 -0.9375 C 19.4375 -0.125 17.570312 0.28125 15.5 0.28125 C 11.257812 0.28125 8.007812 -1.113281 5.75 -3.90625 C 3.5 -6.695312 2.375 -10.640625 2.375 -15.734375 C 2.375 -19.296875 2.984375 -22.3125 4.203125 -24.78125 C 5.421875 -27.257812 7.128906 -29.128906 9.328125 -30.390625 C 11.523438 -31.648438 14.085938 -32.28125 17.015625 -32.28125 C 20.179688 -32.28125 22.710938 -31.703125 24.609375 -30.546875 L 23.28125 -27.890625 C 21.75 -28.898438 19.675781 -29.40625 17.0625 -29.40625 C 13.519531 -29.40625 10.742188 -28.285156 8.734375 -26.046875 C 6.722656 -23.804688 5.71875 -20.550781 5.71875 -16.28125 C 5.71875 -15.519531 5.765625 -14.648438 5.859375 -13.671875 C 6.648438 -15.410156 7.910156 -16.757812 9.640625 -17.71875 C 11.378906 -18.675781 13.378906 -19.15625 15.640625 -19.15625 Z M 15.359375 -2.515625 C 17.679688 -2.515625 19.566406 -3.144531 21.015625 -4.40625 C 22.460938 -5.675781 23.1875 -7.363281 23.1875 -9.46875 C 23.1875 -11.570312 22.460938 -13.25 21.015625 -14.5 C 19.566406 -15.75 17.609375 -16.375 15.140625 -16.375 C 13.523438 -16.375 12.097656 -16.066406 10.859375 -15.453125 C 9.628906 -14.847656 8.660156 -14.007812 7.953125 -12.9375 C 7.253906 -11.875 6.90625 -10.6875 6.90625 -9.375 C 6.90625 -8.15625 7.234375 -7.023438 7.890625 -5.984375 C 8.546875 -4.953125 9.515625 -4.113281 10.796875 -3.46875 C 12.078125 -2.832031 13.597656 -2.515625 15.359375 -2.515625 Z M 15.359375 -2.515625 "/></g></g><g style="fill:#ffffff;fill-opacity:1;"><g transform="translate(164.15444, 298.718571)"><path style="stroke:none" d="M 19.84375 0 L 12.21875 -10.0625 L 4.53125 0 L 0.875 0 L 10.375 -12.34375 L 1.328125 -24.0625 L 4.984375 -24.0625 L 12.21875 -14.640625 L 19.4375 -24.0625 L 23 -24.0625 L 13.953125 -12.34375 L 23.546875 0 Z M 19.84375 0 "/></g></g><g style="fill:#ffffff;fill-opacity:1;"><g transform="translate(188.2933, 298.718571)"><path style="stroke:none" d=""/></g></g><g style="fill:#ffffff;fill-opacity:1;"><g transform="translate(199.996946, 298.718571)"><path style="stroke:none" d="M 26.484375 -33.9375 L 26.484375 0 L 23.375 0 L 23.375 -4.75 C 22.394531 -3.132812 21.101562 -1.898438 19.5 -1.046875 C 17.90625 -0.191406 16.101562 0.234375 14.09375 0.234375 C 11.832031 0.234375 9.785156 -0.28125 7.953125 -1.3125 C 6.128906 -2.351562 4.695312 -3.800781 3.65625 -5.65625 C 2.625 -7.519531 2.109375 -9.644531 2.109375 -12.03125 C 2.109375 -14.40625 2.625 -16.519531 3.65625 -18.375 C 4.695312 -20.238281 6.128906 -21.679688 7.953125 -22.703125 C 9.785156 -23.722656 11.832031 -24.234375 14.09375 -24.234375 C 16.039062 -24.234375 17.796875 -23.828125 19.359375 -23.015625 C 20.929688 -22.210938 22.222656 -21.035156 23.234375 -19.484375 L 23.234375 -33.9375 Z M 14.359375 -2.65625 C 16.035156 -2.65625 17.550781 -3.039062 18.90625 -3.8125 C 20.269531 -4.59375 21.335938 -5.695312 22.109375 -7.125 C 22.890625 -8.5625 23.28125 -10.195312 23.28125 -12.03125 C 23.28125 -13.851562 22.890625 -15.484375 22.109375 -16.921875 C 21.335938 -18.359375 20.269531 -19.460938 18.90625 -20.234375 C 17.550781 -21.015625 16.035156 -21.40625 14.359375 -21.40625 C 12.648438 -21.40625 11.117188 -21.015625 9.765625 -20.234375 C 8.410156 -19.460938 7.34375 -18.359375 6.5625 -16.921875 C 5.78125 -15.484375 5.390625 -13.851562 5.390625 -12.03125 C 5.390625 -10.195312 5.78125 -8.5625 6.5625 -7.125 C 7.34375 -5.695312 8.410156 -4.59375 9.765625 -3.8125 C 11.117188 -3.039062 12.648438 -2.65625 14.359375 -2.65625 Z M 14.359375 -2.65625 "/></g></g><g style="fill:#ffffff;fill-opacity:1;"><g transform="translate(230.719146, 298.718571)"><path style="stroke:none" d="M 25.46875 -11.015625 L 5.34375 -11.015625 C 5.53125 -8.515625 6.492188 -6.492188 8.234375 -4.953125 C 9.972656 -3.421875 12.164062 -2.65625 14.8125 -2.65625 C 16.3125 -2.65625 17.6875 -2.921875 18.9375 -3.453125 C 20.1875 -3.984375 21.269531 -4.769531 22.1875 -5.8125 L 24.015625 -3.703125 C 22.941406 -2.421875 21.601562 -1.441406 20 -0.765625 C 18.40625 -0.0976562 16.644531 0.234375 14.71875 0.234375 C 12.25 0.234375 10.0625 -0.289062 8.15625 -1.34375 C 6.257812 -2.394531 4.773438 -3.847656 3.703125 -5.703125 C 2.640625 -7.566406 2.109375 -9.675781 2.109375 -12.03125 C 2.109375 -14.375 2.617188 -16.472656 3.640625 -18.328125 C 4.660156 -20.191406 6.0625 -21.640625 7.84375 -22.671875 C 9.625 -23.710938 11.628906 -24.234375 13.859375 -24.234375 C 16.085938 -24.234375 18.082031 -23.710938 19.84375 -22.671875 C 21.613281 -21.640625 23 -20.203125 24 -18.359375 C 25.007812 -16.515625 25.515625 -14.40625 25.515625 -12.03125 Z M 13.859375 -21.453125 C 11.535156 -21.453125 9.585938 -20.710938 8.015625 -19.234375 C 6.453125 -17.753906 5.5625 -15.828125 5.34375 -13.453125 L 22.40625 -13.453125 C 22.195312 -15.828125 21.304688 -17.753906 19.734375 -19.234375 C 18.160156 -20.710938 16.203125 -21.453125 13.859375 -21.453125 Z M 13.859375 -21.453125 "/></g></g><g style="fill:#d0a944;fill-opacity:1;"><g transform="translate(258.064832, 298.718571)"><path style="stroke:none" d=""/></g></g><g style="fill:#d0a944;fill-opacity:1;"><g transform="translate(269.768478, 298.718571)"><path style="stroke:none" d="M 27.078125 0 L 19.75 -10.296875 C 18.925781 -10.203125 18.078125 -10.15625 17.203125 -10.15625 L 8.59375 -10.15625 L 8.59375 0 L 5.21875 0 L 5.21875 -32.015625 L 17.203125 -32.015625 C 21.285156 -32.015625 24.484375 -31.035156 26.796875 -29.078125 C 29.117188 -27.128906 30.28125 -24.445312 30.28125 -21.03125 C 30.28125 -18.53125 29.644531 -16.421875 28.375 -14.703125 C 27.113281 -12.984375 25.304688 -11.738281 22.953125 -10.96875 L 30.78125 0 Z M 17.109375 -13.03125 C 20.273438 -13.03125 22.695312 -13.726562 24.375 -15.125 C 26.050781 -16.53125 26.890625 -18.5 26.890625 -21.03125 C 26.890625 -23.625 26.050781 -25.613281 24.375 -27 C 22.695312 -28.394531 20.273438 -29.09375 17.109375 -29.09375 L 8.59375 -29.09375 L 8.59375 -13.03125 Z M 17.109375 -13.03125 "/></g></g><g style="fill:#d0a944;fill-opacity:1;"><g transform="translate(302.547975, 298.718571)"><path style="stroke:none" d="M 25.984375 -8.453125 C 25.984375 -6.109375 25.082031 -4.117188 23.28125 -2.484375 C 21.476562 -0.859375 18.835938 0.046875 15.359375 0.234375 L 15.359375 5.484375 L 13.078125 5.484375 L 13.078125 0.28125 C 10.847656 0.15625 8.75 -0.28125 6.78125 -1.03125 C 4.820312 -1.78125 3.28125 -2.734375 2.15625 -3.890625 L 3.46875 -6.5 C 4.539062 -5.457031 5.9375 -4.582031 7.65625 -3.875 C 9.382812 -3.175781 11.191406 -2.769531 13.078125 -2.65625 L 13.078125 -14.6875 C 10.972656 -15.195312 9.21875 -15.75 7.8125 -16.34375 C 6.414062 -16.9375 5.25 -17.804688 4.3125 -18.953125 C 3.382812 -20.097656 2.921875 -21.613281 2.921875 -23.5 C 2.921875 -25.851562 3.773438 -27.828125 5.484375 -29.421875 C 7.191406 -31.023438 9.722656 -31.96875 13.078125 -32.25 L 13.078125 -37.5 L 15.359375 -37.5 L 15.359375 -32.28125 C 17.097656 -32.226562 18.785156 -31.945312 20.421875 -31.4375 C 22.054688 -30.9375 23.46875 -30.273438 24.65625 -29.453125 L 23.5 -26.75 C 22.25 -27.539062 20.921875 -28.164062 19.515625 -28.625 C 18.117188 -29.082031 16.734375 -29.34375 15.359375 -29.40625 L 15.359375 -17.28125 C 17.617188 -16.738281 19.460938 -16.179688 20.890625 -15.609375 C 22.328125 -15.046875 23.535156 -14.1875 24.515625 -13.03125 C 25.492188 -11.875 25.984375 -10.347656 25.984375 -8.453125 Z M 6.265625 -23.59375 C 6.265625 -22.007812 6.847656 -20.804688 8.015625 -19.984375 C 9.191406 -19.160156 10.878906 -18.457031 13.078125 -17.875 L 13.078125 -29.3125 C 10.828125 -29.132812 9.128906 -28.519531 7.984375 -27.46875 C 6.835938 -26.414062 6.265625 -25.125 6.265625 -23.59375 Z M 15.359375 -2.65625 C 17.773438 -2.832031 19.59375 -3.425781 20.8125 -4.4375 C 22.03125 -5.445312 22.640625 -6.726562 22.640625 -8.28125 C 22.640625 -9.925781 22.015625 -11.160156 20.765625 -11.984375 C 19.515625 -12.804688 17.710938 -13.507812 15.359375 -14.09375 Z M 15.359375 -2.65625 "/></g></g><g style="fill:#d0a944;fill-opacity:1;"><g transform="translate(330.389963, 298.718571)"><path style="stroke:none" d="M 15.640625 -19.15625 C 17.742188 -19.15625 19.609375 -18.757812 21.234375 -17.96875 C 22.867188 -17.175781 24.144531 -16.054688 25.0625 -14.609375 C 25.976562 -13.160156 26.4375 -11.476562 26.4375 -9.5625 C 26.4375 -7.601562 25.960938 -5.878906 25.015625 -4.390625 C 24.066406 -2.898438 22.757812 -1.75 21.09375 -0.9375 C 19.4375 -0.125 17.570312 0.28125 15.5 0.28125 C 11.257812 0.28125 8.007812 -1.113281 5.75 -3.90625 C 3.5 -6.695312 2.375 -10.640625 2.375 -15.734375 C 2.375 -19.296875 2.984375 -22.3125 4.203125 -24.78125 C 5.421875 -27.257812 7.128906 -29.128906 9.328125 -30.390625 C 11.523438 -31.648438 14.085938 -32.28125 17.015625 -32.28125 C 20.179688 -32.28125 22.710938 -31.703125 24.609375 -30.546875 L 23.28125 -27.890625 C 21.75 -28.898438 19.675781 -29.40625 17.0625 -29.40625 C 13.519531 -29.40625 10.742188 -28.285156 8.734375 -26.046875 C 6.722656 -23.804688 5.71875 -20.550781 5.71875 -16.28125 C 5.71875 -15.519531 5.765625 -14.648438 5.859375 -13.671875 C 6.648438 -15.410156 7.910156 -16.757812 9.640625 -17.71875 C 11.378906 -18.675781 13.378906 -19.15625 15.640625 -19.15625 Z M 15.359375 -2.515625 C 17.679688 -2.515625 19.566406 -3.144531 21.015625 -4.40625 C 22.460938 -5.675781 23.1875 -7.363281 23.1875 -9.46875 C 23.1875 -11.570312 22.460938 -13.25 21.015625 -14.5 C 19.566406 -15.75 17.609375 -16.375 15.140625 -16.375 C 13.523438 -16.375 12.097656 -16.066406 10.859375 -15.453125 C 9.628906 -14.847656 8.660156 -14.007812 7.953125 -12.9375 C 7.253906 -11.875 6.90625 -10.6875 6.90625 -9.375 C 6.90625 -8.15625 7.234375 -7.023438 7.890625 -5.984375 C 8.546875 -4.953125 9.515625 -4.113281 10.796875 -3.46875 C 12.078125 -2.832031 13.597656 -2.515625 15.359375 -2.515625 Z M 15.359375 -2.515625 "/></g></g><g style="fill:#d0a944;fill-opacity:1;"><g transform="translate(357.957646, 298.718571)"><path style="stroke:none" d="M 20.71875 -16.78125 C 22.726562 -16.113281 24.273438 -15.109375 25.359375 -13.765625 C 26.441406 -12.421875 26.984375 -10.804688 26.984375 -8.921875 C 26.984375 -7.054688 26.476562 -5.429688 25.46875 -4.046875 C 24.46875 -2.660156 23.03125 -1.59375 21.15625 -0.84375 C 19.28125 -0.09375 17.078125 0.28125 14.546875 0.28125 C 10.703125 0.28125 7.679688 -0.539062 5.484375 -2.1875 C 3.285156 -3.84375 2.1875 -6.085938 2.1875 -8.921875 C 2.1875 -10.835938 2.710938 -12.457031 3.765625 -13.78125 C 4.816406 -15.113281 6.351562 -16.113281 8.375 -16.78125 C 6.726562 -17.425781 5.476562 -18.347656 4.625 -19.546875 C 3.769531 -20.753906 3.34375 -22.179688 3.34375 -23.828125 C 3.34375 -26.421875 4.351562 -28.476562 6.375 -30 C 8.40625 -31.519531 11.128906 -32.28125 14.546875 -32.28125 C 16.796875 -32.28125 18.765625 -31.9375 20.453125 -31.25 C 22.148438 -30.570312 23.472656 -29.59375 24.421875 -28.3125 C 25.367188 -27.03125 25.84375 -25.535156 25.84375 -23.828125 C 25.84375 -22.179688 25.398438 -20.753906 24.515625 -19.546875 C 23.628906 -18.347656 22.363281 -17.425781 20.71875 -16.78125 Z M 6.625 -23.734375 C 6.625 -21.960938 7.328125 -20.554688 8.734375 -19.515625 C 10.140625 -18.484375 12.078125 -17.96875 14.546875 -17.96875 C 17.015625 -17.96875 18.957031 -18.484375 20.375 -19.515625 C 21.789062 -20.554688 22.5 -21.945312 22.5 -23.6875 C 22.5 -25.488281 21.773438 -26.90625 20.328125 -27.9375 C 18.878906 -28.976562 16.953125 -29.5 14.546875 -29.5 C 12.109375 -29.5 10.175781 -28.976562 8.75 -27.9375 C 7.332031 -26.90625 6.625 -25.503906 6.625 -23.734375 Z M 14.546875 -2.515625 C 17.378906 -2.515625 19.59375 -3.09375 21.1875 -4.25 C 22.789062 -5.40625 23.59375 -6.976562 23.59375 -8.96875 C 23.59375 -10.945312 22.789062 -12.503906 21.1875 -13.640625 C 19.59375 -14.785156 17.378906 -15.359375 14.546875 -15.359375 C 11.742188 -15.359375 9.539062 -14.785156 7.9375 -13.640625 C 6.332031 -12.503906 5.53125 -10.945312 5.53125 -8.96875 C 5.53125 -6.957031 6.320312 -5.378906 7.90625 -4.234375 C 9.5 -3.085938 11.710938 -2.515625 14.546875 -2.515625 Z M 14.546875 -2.515625 "/></g></g><g style="fill:#d0a944;fill-opacity:1;"><g transform="translate(386.851136, 298.718571)"><path style="stroke:none" d="M 4.890625 -4.75 C 5.597656 -4.75 6.175781 -4.515625 6.625 -4.046875 C 7.082031 -3.578125 7.3125 -2.988281 7.3125 -2.28125 C 7.3125 -1.914062 7.257812 -1.519531 7.15625 -1.09375 C 7.050781 -0.664062 6.890625 -0.179688 6.671875 0.359375 L 4.75 6.671875 L 2.5625 6.671875 L 4.109375 0.046875 C 3.628906 -0.109375 3.234375 -0.390625 2.921875 -0.796875 C 2.617188 -1.210938 2.46875 -1.707031 2.46875 -2.28125 C 2.46875 -2.988281 2.695312 -3.578125 3.15625 -4.046875 C 3.613281 -4.515625 4.191406 -4.75 4.890625 -4.75 Z M 4.890625 -4.75 "/></g></g><g style="fill:#d0a944;fill-opacity:1;"><g transform="translate(396.268899, 298.718571)"><path style="stroke:none" d="M 24.234375 -2.921875 L 24.234375 0 L 1.78125 0 L 1.78125 -2.328125 L 15.09375 -15.359375 C 16.769531 -17.015625 17.90625 -18.441406 18.5 -19.640625 C 19.09375 -20.847656 19.390625 -22.0625 19.390625 -23.28125 C 19.390625 -25.164062 18.738281 -26.632812 17.4375 -27.6875 C 16.144531 -28.738281 14.296875 -29.265625 11.890625 -29.265625 C 8.140625 -29.265625 5.226562 -28.078125 3.15625 -25.703125 L 0.828125 -27.71875 C 2.078125 -29.175781 3.664062 -30.300781 5.59375 -31.09375 C 7.53125 -31.882812 9.722656 -32.28125 12.171875 -32.28125 C 15.429688 -32.28125 18.015625 -31.507812 19.921875 -29.96875 C 21.828125 -28.4375 22.78125 -26.328125 22.78125 -23.640625 C 22.78125 -21.992188 22.410156 -20.410156 21.671875 -18.890625 C 20.941406 -17.367188 19.554688 -15.613281 17.515625 -13.625 L 6.625 -2.921875 Z M 24.234375 -2.921875 "/></g></g><g style="fill:#d0a944;fill-opacity:1;"><g transform="translate(421.962153, 298.718571)"><path style="stroke:none" d="M 15.640625 -19.15625 C 17.742188 -19.15625 19.609375 -18.757812 21.234375 -17.96875 C 22.867188 -17.175781 24.144531 -16.054688 25.0625 -14.609375 C 25.976562 -13.160156 26.4375 -11.476562 26.4375 -9.5625 C 26.4375 -7.601562 25.960938 -5.878906 25.015625 -4.390625 C 24.066406 -2.898438 22.757812 -1.75 21.09375 -0.9375 C 19.4375 -0.125 17.570312 0.28125 15.5 0.28125 C 11.257812 0.28125 8.007812 -1.113281 5.75 -3.90625 C 3.5 -6.695312 2.375 -10.640625 2.375 -15.734375 C 2.375 -19.296875 2.984375 -22.3125 4.203125 -24.78125 C 5.421875 -27.257812 7.128906 -29.128906 9.328125 -30.390625 C 11.523438 -31.648438 14.085938 -32.28125 17.015625 -32.28125 C 20.179688 -32.28125 22.710938 -31.703125 24.609375 -30.546875 L 23.28125 -27.890625 C 21.75 -28.898438 19.675781 -29.40625 17.0625 -29.40625 C 13.519531 -29.40625 10.742188 -28.285156 8.734375 -26.046875 C 6.722656 -23.804688 5.71875 -20.550781 5.71875 -16.28125 C 5.71875 -15.519531 5.765625 -14.648438 5.859375 -13.671875 C 6.648438 -15.410156 7.910156 -16.757812 9.640625 -17.71875 C 11.378906 -18.675781 13.378906 -19.15625 15.640625 -19.15625 Z M 15.359375 -2.515625 C 17.679688 -2.515625 19.566406 -3.144531 21.015625 -4.40625 C 22.460938 -5.675781 23.1875 -7.363281 23.1875 -9.46875 C 23.1875 -11.570312 22.460938 -13.25 21.015625 -14.5 C 19.566406 -15.75 17.609375 -16.375 15.140625 -16.375 C 13.523438 -16.375 12.097656 -16.066406 10.859375 -15.453125 C 9.628906 -14.847656 8.660156 -14.007812 7.953125 -12.9375 C 7.253906 -11.875 6.90625 -10.6875 6.90625 -9.375 C 6.90625 -8.15625 7.234375 -7.023438 7.890625 -5.984375 C 8.546875 -4.953125 9.515625 -4.113281 10.796875 -3.46875 C 12.078125 -2.832031 13.597656 -2.515625 15.359375 -2.515625 Z M 15.359375 -2.515625 "/></g></g></g></svg>