<svg xmlns="http://www.w3.org/2000/svg" xmlns:xlink="http://www.w3.org/1999/xlink" width="700" zoomAndPan="magnify" viewBox="0 0 525 344.999992" height="460" preserveAspectRatio="xMidYMid meet" version="1.2"><defs/><g id="237dad9d51"><g style="fill:#ffffff;fill-opacity:1;"><g transform="translate(177.521903, 84.355715)"><path style="stroke:none" d="M 65.625 -14.1875 L 54.625 -14.1875 L 54.625 0 L 39.375 0 L 39.375 -14.1875 L 2.984375 -14.1875 L 2.984375 -24.703125 L 34.84375 -67.5625 L 51.25 -67.5625 L 21.71875 -26.921875 L 39.859375 -26.921875 L 39.859375 -39.578125 L 54.625 -39.578125 L 54.625 -26.921875 L 65.625 -26.921875 Z M 65.625 -14.1875 "/></g></g><g style="fill:#ffffff;fill-opacity:1;"><g transform="translate(244.015375, 84.355715)"><path style="stroke:none" d="M 35.328125 -40.046875 C 41.242188 -39.085938 45.773438 -36.882812 48.921875 -33.4375 C 52.078125 -30 53.65625 -25.738281 53.65625 -20.65625 C 53.65625 -16.726562 52.625 -13.109375 50.5625 -9.796875 C 48.507812 -6.484375 45.375 -3.828125 41.15625 -1.828125 C 36.945312 0.160156 31.785156 1.15625 25.671875 1.15625 C 20.910156 1.15625 16.226562 0.53125 11.625 -0.71875 C 7.03125 -1.976562 3.125 -3.765625 -0.09375 -6.078125 L 5.984375 -18.046875 C 8.554688 -16.117188 11.53125 -14.625 14.90625 -13.5625 C 18.289062 -12.5 21.75 -11.96875 25.28125 -11.96875 C 29.207031 -11.96875 32.296875 -12.722656 34.546875 -14.234375 C 36.804688 -15.742188 37.9375 -17.882812 37.9375 -20.65625 C 37.9375 -26.1875 33.71875 -28.953125 25.28125 -28.953125 L 18.140625 -28.953125 L 18.140625 -39.28125 L 32.046875 -55.015625 L 3.28125 -55.015625 L 3.28125 -67.5625 L 50.578125 -67.5625 L 50.578125 -57.421875 Z M 35.328125 -40.046875 "/></g></g><g style="fill:#ffffff;fill-opacity:1;"><g transform="translate(301.147655, 84.355715)"><path style="stroke:none" d="M 56.65625 -67.5625 L 56.65625 -57.421875 L 31.5625 0 L 14.578125 0 L 38.796875 -54.828125 L 16.40625 -54.828125 L 16.40625 -43.8125 L 2.515625 -43.8125 L 2.515625 -67.5625 Z M 56.65625 -67.5625 "/></g></g><g style="fill:#ffffff;fill-opacity:1;"><g transform="translate(126.634832, 77.643878)"><path style="stroke:none" d="M 16.375 0 L 12.203125 -6.03125 L 7.578125 -6.03125 L 7.578125 0 L 2.5625 0 L 2.5625 -21.671875 L 11.953125 -21.671875 C 13.867188 -21.671875 15.53125 -21.347656 16.9375 -20.703125 C 18.351562 -20.066406 19.441406 -19.160156 20.203125 -17.984375 C 20.972656 -16.804688 21.359375 -15.414062 21.359375 -13.8125 C 21.359375 -12.195312 20.96875 -10.804688 20.1875 -9.640625 C 19.414062 -8.472656 18.320312 -7.582031 16.90625 -6.96875 L 21.765625 0 Z M 16.28125 -13.8125 C 16.28125 -15.019531 15.882812 -15.945312 15.09375 -16.59375 C 14.3125 -17.25 13.171875 -17.578125 11.671875 -17.578125 L 7.578125 -17.578125 L 7.578125 -10.03125 L 11.671875 -10.03125 C 13.171875 -10.03125 14.3125 -10.359375 15.09375 -11.015625 C 15.882812 -11.679688 16.28125 -12.613281 16.28125 -13.8125 Z M 16.28125 -13.8125 "/></g></g><g style="fill:#ffffff;fill-opacity:1;"><g transform="translate(149.38414, 77.643878)"><path style="stroke:none" d="M 18.875 -6.34375 C 18.875 -4.65625 18.253906 -3.207031 17.015625 -2 C 15.785156 -0.789062 14.003906 -0.0390625 11.671875 0.25 L 11.671875 3.71875 L 8.578125 3.71875 L 8.578125 0.34375 C 7.046875 0.257812 5.585938 -0.00390625 4.203125 -0.453125 C 2.828125 -0.910156 1.710938 -1.472656 0.859375 -2.140625 L 2.5625 -5.90625 C 3.351562 -5.332031 4.273438 -4.847656 5.328125 -4.453125 C 6.378906 -4.066406 7.460938 -3.820312 8.578125 -3.71875 L 8.578125 -8.890625 C 7.109375 -9.234375 5.867188 -9.617188 4.859375 -10.046875 C 3.847656 -10.484375 3 -11.117188 2.3125 -11.953125 C 1.632812 -12.796875 1.296875 -13.910156 1.296875 -15.296875 C 1.296875 -17.003906 1.921875 -18.472656 3.171875 -19.703125 C 4.421875 -20.929688 6.222656 -21.679688 8.578125 -21.953125 L 8.578125 -25.375 L 11.671875 -25.375 L 11.671875 -22 C 14.210938 -21.800781 16.304688 -21.175781 17.953125 -20.125 L 16.40625 -16.3125 C 14.851562 -17.195312 13.273438 -17.734375 11.671875 -17.921875 L 11.671875 -12.65625 C 13.117188 -12.332031 14.34375 -11.957031 15.34375 -11.53125 C 16.34375 -11.101562 17.179688 -10.472656 17.859375 -9.640625 C 18.535156 -8.804688 18.875 -7.707031 18.875 -6.34375 Z M 6.28125 -15.53125 C 6.28125 -15.019531 6.472656 -14.597656 6.859375 -14.265625 C 7.253906 -13.941406 7.828125 -13.664062 8.578125 -13.4375 L 8.578125 -17.828125 C 7.785156 -17.640625 7.203125 -17.34375 6.828125 -16.9375 C 6.460938 -16.539062 6.28125 -16.070312 6.28125 -15.53125 Z M 11.671875 -3.84375 C 12.410156 -4 12.960938 -4.265625 13.328125 -4.640625 C 13.703125 -5.015625 13.890625 -5.457031 13.890625 -5.96875 C 13.890625 -6.488281 13.695312 -6.910156 13.3125 -7.234375 C 12.9375 -7.566406 12.390625 -7.859375 11.671875 -8.109375 Z M 11.671875 -3.84375 "/></g></g><g style="fill:#ffffff;fill-opacity:1;"><g transform="translate(352.896722, 55.274418)"><path style="stroke:none" d="M 5.03125 -7.09375 C 6.09375 -7.09375 6.96875 -6.753906 7.65625 -6.078125 C 8.34375 -5.398438 8.6875 -4.519531 8.6875 -3.4375 C 8.6875 -2.925781 8.625 -2.414062 8.5 -1.90625 C 8.375 -1.394531 8.09375 -0.632812 7.65625 0.375 L 5.484375 5.875 L 1.71875 5.875 L 3.390625 -0.1875 C 2.753906 -0.445312 2.25 -0.859375 1.875 -1.421875 C 1.507812 -1.992188 1.328125 -2.664062 1.328125 -3.4375 C 1.328125 -4.519531 1.675781 -5.398438 2.375 -6.078125 C 3.082031 -6.753906 3.96875 -7.09375 5.03125 -7.09375 Z M 5.03125 -7.09375 "/></g></g><g style="fill:#ffffff;fill-opacity:1;"><g transform="translate(360.480804, 55.274418)"><path style="stroke:none" d="M 12.921875 0.453125 C 10.710938 0.453125 8.742188 -0.0859375 7.015625 -1.171875 C 5.285156 -2.265625 3.929688 -3.847656 2.953125 -5.921875 C 1.972656 -7.992188 1.484375 -10.46875 1.484375 -13.34375 C 1.484375 -16.207031 1.972656 -18.675781 2.953125 -20.75 C 3.929688 -22.820312 5.285156 -24.40625 7.015625 -25.5 C 8.742188 -26.59375 10.710938 -27.140625 12.921875 -27.140625 C 15.128906 -27.140625 17.097656 -26.59375 18.828125 -25.5 C 20.554688 -24.40625 21.910156 -22.820312 22.890625 -20.75 C 23.867188 -18.675781 24.359375 -16.207031 24.359375 -13.34375 C 24.359375 -10.46875 23.867188 -7.992188 22.890625 -5.921875 C 21.910156 -3.847656 20.554688 -2.265625 18.828125 -1.171875 C 17.097656 -0.0859375 15.128906 0.453125 12.921875 0.453125 Z M 12.921875 -4.765625 C 14.546875 -4.765625 15.820312 -5.460938 16.75 -6.859375 C 17.675781 -8.253906 18.140625 -10.414062 18.140625 -13.34375 C 18.140625 -16.257812 17.675781 -18.414062 16.75 -19.8125 C 15.820312 -21.207031 14.546875 -21.90625 12.921875 -21.90625 C 11.316406 -21.90625 10.050781 -21.207031 9.125 -19.8125 C 8.195312 -18.414062 7.734375 -16.257812 7.734375 -13.34375 C 7.734375 -10.414062 8.195312 -8.253906 9.125 -6.859375 C 10.050781 -5.460938 11.316406 -4.765625 12.921875 -4.765625 Z M 12.921875 -4.765625 "/></g></g><g style="fill:#ffffff;fill-opacity:1;"><g transform="translate(383.957882, 55.274418)"><path style="stroke:none" d="M 12.921875 0.453125 C 10.710938 0.453125 8.742188 -0.0859375 7.015625 -1.171875 C 5.285156 -2.265625 3.929688 -3.847656 2.953125 -5.921875 C 1.972656 -7.992188 1.484375 -10.46875 1.484375 -13.34375 C 1.484375 -16.207031 1.972656 -18.675781 2.953125 -20.75 C 3.929688 -22.820312 5.285156 -24.40625 7.015625 -25.5 C 8.742188 -26.59375 10.710938 -27.140625 12.921875 -27.140625 C 15.128906 -27.140625 17.097656 -26.59375 18.828125 -25.5 C 20.554688 -24.40625 21.910156 -22.820312 22.890625 -20.75 C 23.867188 -18.675781 24.359375 -16.207031 24.359375 -13.34375 C 24.359375 -10.46875 23.867188 -7.992188 22.890625 -5.921875 C 21.910156 -3.847656 20.554688 -2.265625 18.828125 -1.171875 C 17.097656 -0.0859375 15.128906 0.453125 12.921875 0.453125 Z M 12.921875 -4.765625 C 14.546875 -4.765625 15.820312 -5.460938 16.75 -6.859375 C 17.675781 -8.253906 18.140625 -10.414062 18.140625 -13.34375 C 18.140625 -16.257812 17.675781 -18.414062 16.75 -19.8125 C 15.820312 -21.207031 14.546875 -21.90625 12.921875 -21.90625 C 11.316406 -21.90625 10.050781 -21.207031 9.125 -19.8125 C 8.195312 -18.414062 7.734375 -16.257812 7.734375 -13.34375 C 7.734375 -10.414062 8.195312 -8.253906 9.125 -6.859375 C 10.050781 -5.460938 11.316406 -4.765625 12.921875 -4.765625 Z M 12.921875 -4.765625 "/></g></g><path style="fill:none;stroke-width:14;stroke-linecap:butt;stroke-linejoin:miter;stroke:#d0a944;stroke-opacity:1;stroke-miterlimit:4;" d="M 0.00236191 7.000551 L 434.901219 7.001419 " transform="matrix(0.717066,-0.219808,0.219808,0.717066,104.451715,98.06269)"/><g style="fill:#ffffff;fill-opacity:1;"><g transform="translate(132.055896, 50.20297)"><path style="stroke:none" d="M 14.828125 -17.75 L 14.828125 0 L 11.265625 0 L 11.265625 -1.484375 C 10.335938 -0.367188 9 0.1875 7.25 0.1875 C 6.039062 0.1875 4.941406 -0.0820312 3.953125 -0.625 C 2.972656 -1.164062 2.203125 -1.9375 1.640625 -2.9375 C 1.085938 -3.945312 0.8125 -5.113281 0.8125 -6.4375 C 0.8125 -7.757812 1.085938 -8.921875 1.640625 -9.921875 C 2.203125 -10.929688 2.972656 -11.707031 3.953125 -12.25 C 4.941406 -12.789062 6.039062 -13.0625 7.25 -13.0625 C 8.894531 -13.0625 10.175781 -12.539062 11.09375 -11.5 L 11.09375 -17.75 Z M 7.890625 -2.875 C 8.835938 -2.875 9.617188 -3.195312 10.234375 -3.84375 C 10.859375 -4.488281 11.171875 -5.351562 11.171875 -6.4375 C 11.171875 -7.519531 10.859375 -8.382812 10.234375 -9.03125 C 9.617188 -9.675781 8.835938 -10 7.890625 -10 C 6.929688 -10 6.140625 -9.675781 5.515625 -9.03125 C 4.898438 -8.382812 4.59375 -7.519531 4.59375 -6.4375 C 4.59375 -5.351562 4.898438 -4.488281 5.515625 -3.84375 C 6.140625 -3.195312 6.929688 -2.875 7.890625 -2.875 Z M 7.890625 -2.875 "/></g></g><g style="fill:#ffffff;fill-opacity:1;"><g transform="translate(148.607808, 50.20297)"><path style="stroke:none" d="M 14.328125 -6.390625 C 14.328125 -6.335938 14.300781 -6 14.25 -5.375 L 4.515625 -5.375 C 4.691406 -4.582031 5.109375 -3.953125 5.765625 -3.484375 C 6.421875 -3.023438 7.234375 -2.796875 8.203125 -2.796875 C 8.867188 -2.796875 9.460938 -2.894531 9.984375 -3.09375 C 10.503906 -3.289062 10.988281 -3.609375 11.4375 -4.046875 L 13.421875 -1.890625 C 12.210938 -0.503906 10.441406 0.1875 8.109375 0.1875 C 6.660156 0.1875 5.375 -0.09375 4.25 -0.65625 C 3.132812 -1.21875 2.273438 -2 1.671875 -3 C 1.066406 -4.007812 0.765625 -5.15625 0.765625 -6.4375 C 0.765625 -7.695312 1.0625 -8.832031 1.65625 -9.84375 C 2.257812 -10.851562 3.082031 -11.640625 4.125 -12.203125 C 5.164062 -12.773438 6.332031 -13.0625 7.625 -13.0625 C 8.882812 -13.0625 10.023438 -12.789062 11.046875 -12.25 C 12.066406 -11.707031 12.867188 -10.925781 13.453125 -9.90625 C 14.035156 -8.894531 14.328125 -7.722656 14.328125 -6.390625 Z M 7.65625 -10.234375 C 6.8125 -10.234375 6.101562 -9.992188 5.53125 -9.515625 C 4.957031 -9.035156 4.601562 -8.382812 4.46875 -7.5625 L 10.8125 -7.5625 C 10.6875 -8.375 10.335938 -9.019531 9.765625 -9.5 C 9.191406 -9.988281 8.488281 -10.234375 7.65625 -10.234375 Z M 7.65625 -10.234375 "/></g></g><g style="fill:#d0a944;fill-opacity:1;"><g transform="translate(89.902147, 244.797279)"><path style="stroke:none" d="M 63.53125 -72.03125 C 74.175781 -70.300781 82.332031 -66.335938 88 -60.140625 C 93.675781 -53.953125 96.515625 -46.285156 96.515625 -37.140625 C 96.515625 -30.085938 94.660156 -23.578125 90.953125 -17.609375 C 87.253906 -11.648438 81.613281 -6.878906 74.03125 -3.296875 C 66.445312 0.285156 57.160156 2.078125 46.171875 2.078125 C 37.609375 2.078125 29.1875 0.953125 20.90625 -1.296875 C 12.632812 -3.554688 5.609375 -6.769531 -0.171875 -10.9375 L 10.765625 -32.453125 C 15.390625 -28.984375 20.738281 -26.296875 26.8125 -24.390625 C 32.894531 -22.484375 39.117188 -21.53125 45.484375 -21.53125 C 52.535156 -21.53125 58.085938 -22.890625 62.140625 -25.609375 C 66.191406 -28.328125 68.21875 -32.171875 68.21875 -37.140625 C 68.21875 -47.097656 60.640625 -52.078125 45.484375 -52.078125 L 32.625 -52.078125 L 32.625 -70.640625 L 57.625 -98.9375 L 5.90625 -98.9375 L 5.90625 -121.5 L 90.953125 -121.5 L 90.953125 -103.28125 Z M 63.53125 -72.03125 "/></g></g><g style="fill:#d0a944;fill-opacity:1;"><g transform="translate(192.638697, 244.797279)"><path style="stroke:none" d="M 118.03125 -25.515625 L 98.25 -25.515625 L 98.25 0 L 70.8125 0 L 70.8125 -25.515625 L 5.375 -25.515625 L 5.375 -44.4375 L 62.65625 -121.5 L 92.171875 -121.5 L 39.0625 -48.421875 L 71.6875 -48.421875 L 71.6875 -71.171875 L 98.25 -71.171875 L 98.25 -48.421875 L 118.03125 -48.421875 Z M 118.03125 -25.515625 "/></g></g><g style="fill:#d0a944;fill-opacity:1;"><g transform="translate(312.208763, 244.797279)"><path style="stroke:none" d="M 49.46875 -123.59375 C 66.476562 -123.59375 79.785156 -118.410156 89.390625 -108.046875 C 98.992188 -97.691406 103.796875 -82.796875 103.796875 -63.359375 C 103.796875 -49.585938 101.21875 -37.78125 96.0625 -27.9375 C 90.914062 -18.101562 83.65625 -10.640625 74.28125 -5.546875 C 64.914062 -0.460938 54.097656 2.078125 41.828125 2.078125 C 35.347656 2.078125 29.15625 1.359375 23.25 -0.078125 C 17.351562 -1.523438 12.320312 -3.582031 8.15625 -6.25 L 18.578125 -26.90625 C 24.472656 -22.851562 32.050781 -20.828125 41.3125 -20.828125 C 51.613281 -20.828125 59.769531 -23.863281 65.78125 -29.9375 C 71.800781 -36.019531 75.039062 -44.785156 75.5 -56.234375 C 68.21875 -48.941406 58.148438 -45.296875 45.296875 -45.296875 C 37.546875 -45.296875 30.488281 -46.859375 24.125 -49.984375 C 17.757812 -53.109375 12.722656 -57.535156 9.015625 -63.265625 C 5.316406 -68.992188 3.46875 -75.617188 3.46875 -83.140625 C 3.46875 -91.242188 5.492188 -98.359375 9.546875 -104.484375 C 13.597656 -110.617188 19.125 -115.335938 26.125 -118.640625 C 33.125 -121.941406 40.90625 -123.59375 49.46875 -123.59375 Z M 51.546875 -66.3125 C 57.679688 -66.3125 62.6875 -68.015625 66.5625 -71.421875 C 70.4375 -74.835938 72.375 -79.207031 72.375 -84.53125 C 72.375 -89.851562 70.492188 -94.191406 66.734375 -97.546875 C 62.972656 -100.898438 57.796875 -102.578125 51.203125 -102.578125 C 45.179688 -102.578125 40.289062 -100.957031 36.53125 -97.71875 C 32.769531 -94.476562 30.890625 -90.082031 30.890625 -84.53125 C 30.890625 -78.976562 32.769531 -74.550781 36.53125 -71.25 C 40.289062 -67.957031 45.296875 -66.3125 51.546875 -66.3125 Z M 51.546875 -66.3125 "/></g></g><g style="fill:#d0a944;fill-opacity:1;"><g transform="translate(1.90984, 227.535686)"><path style="stroke:none" d="M 28.578125 0 L 20.84375 -10.859375 C 19.976562 -10.765625 19.078125 -10.71875 18.140625 -10.71875 L 9.078125 -10.71875 L 9.078125 0 L 5.5 0 L 5.5 -33.78125 L 18.140625 -33.78125 C 22.453125 -33.78125 25.832031 -32.75 28.28125 -30.6875 C 30.726562 -28.632812 31.953125 -25.804688 31.953125 -22.203125 C 31.953125 -19.566406 31.285156 -17.335938 29.953125 -15.515625 C 28.617188 -13.703125 26.710938 -12.390625 24.234375 -11.578125 L 32.484375 0 Z M 18.046875 -13.75 C 21.398438 -13.75 23.957031 -14.488281 25.71875 -15.96875 C 27.488281 -17.457031 28.375 -19.535156 28.375 -22.203125 C 28.375 -24.941406 27.488281 -27.039062 25.71875 -28.5 C 23.957031 -29.96875 21.398438 -30.703125 18.046875 -30.703125 L 9.078125 -30.703125 L 9.078125 -13.75 Z M 18.046875 -13.75 "/></g></g><g style="fill:#d0a944;fill-opacity:1;"><g transform="translate(36.800764, 227.535686)"><path style="stroke:none" d="M 27.421875 -8.921875 C 27.421875 -6.453125 26.46875 -4.351562 24.5625 -2.625 C 22.664062 -0.90625 19.882812 0.046875 16.21875 0.234375 L 16.21875 5.796875 L 13.796875 5.796875 L 13.796875 0.296875 C 11.453125 0.160156 9.238281 -0.296875 7.15625 -1.078125 C 5.082031 -1.867188 3.453125 -2.878906 2.265625 -4.109375 L 3.671875 -6.859375 C 4.796875 -5.765625 6.265625 -4.847656 8.078125 -4.109375 C 9.898438 -3.367188 11.804688 -2.929688 13.796875 -2.796875 L 13.796875 -15.5 C 11.578125 -16.039062 9.726562 -16.625 8.25 -17.25 C 6.769531 -17.882812 5.539062 -18.800781 4.5625 -20 C 3.582031 -21.207031 3.09375 -22.8125 3.09375 -24.8125 C 3.09375 -27.289062 3.992188 -29.375 5.796875 -31.0625 C 7.597656 -32.75 10.265625 -33.738281 13.796875 -34.03125 L 13.796875 -39.578125 L 16.21875 -39.578125 L 16.21875 -34.078125 C 18.050781 -34.015625 19.828125 -33.71875 21.546875 -33.1875 C 23.273438 -32.65625 24.765625 -31.953125 26.015625 -31.078125 L 24.8125 -28.234375 C 23.488281 -29.066406 22.085938 -29.722656 20.609375 -30.203125 C 19.128906 -30.691406 17.664062 -30.96875 16.21875 -31.03125 L 16.21875 -18.25 C 18.59375 -17.664062 20.535156 -17.078125 22.046875 -16.484375 C 23.566406 -15.890625 24.84375 -14.976562 25.875 -13.75 C 26.90625 -12.53125 27.421875 -10.921875 27.421875 -8.921875 Z M 6.609375 -24.90625 C 6.609375 -23.226562 7.226562 -21.953125 8.46875 -21.078125 C 9.707031 -20.210938 11.484375 -19.476562 13.796875 -18.875 L 13.796875 -30.9375 C 11.421875 -30.75 9.628906 -30.097656 8.421875 -28.984375 C 7.210938 -27.867188 6.609375 -26.507812 6.609375 -24.90625 Z M 16.21875 -2.796875 C 18.757812 -2.992188 20.671875 -3.625 21.953125 -4.6875 C 23.242188 -5.75 23.890625 -7.097656 23.890625 -8.734375 C 23.890625 -10.472656 23.226562 -11.773438 21.90625 -12.640625 C 20.59375 -13.515625 18.695312 -14.253906 16.21875 -14.859375 Z M 16.21875 -2.796875 "/></g></g><g style="fill:#ffffff;fill-opacity:1;"><g transform="translate(0.603661, 175.320428)"><path style="stroke:none" d="M 15.921875 -22.8125 C 18.046875 -22.8125 19.96875 -22.328125 21.6875 -21.359375 C 23.40625 -20.398438 24.753906 -19.046875 25.734375 -17.296875 C 26.710938 -15.546875 27.203125 -13.550781 27.203125 -11.3125 C 27.203125 -9.050781 26.710938 -7.046875 25.734375 -5.296875 C 24.753906 -3.546875 23.410156 -2.1875 21.703125 -1.21875 C 20.003906 -0.257812 18.078125 0.21875 15.921875 0.21875 C 14.085938 0.21875 12.429688 -0.160156 10.953125 -0.921875 C 9.472656 -1.679688 8.257812 -2.796875 7.3125 -4.265625 L 7.3125 8.34375 L 4.265625 8.34375 L 4.265625 -22.640625 L 7.1875 -22.640625 L 7.1875 -18.15625 C 8.101562 -19.644531 9.3125 -20.789062 10.8125 -21.59375 C 12.320312 -22.40625 14.023438 -22.8125 15.921875 -22.8125 Z M 15.703125 -2.5 C 17.285156 -2.5 18.722656 -2.863281 20.015625 -3.59375 C 21.304688 -4.320312 22.316406 -5.359375 23.046875 -6.703125 C 23.773438 -8.054688 24.140625 -9.59375 24.140625 -11.3125 C 24.140625 -13.039062 23.773438 -14.570312 23.046875 -15.90625 C 22.316406 -17.238281 21.304688 -18.273438 20.015625 -19.015625 C 18.722656 -19.765625 17.285156 -20.140625 15.703125 -20.140625 C 14.097656 -20.140625 12.65625 -19.765625 11.375 -19.015625 C 10.101562 -18.273438 9.097656 -17.238281 8.359375 -15.90625 C 7.628906 -14.570312 7.265625 -13.039062 7.265625 -11.3125 C 7.265625 -9.59375 7.628906 -8.054688 8.359375 -6.703125 C 9.097656 -5.359375 10.101562 -4.320312 11.375 -3.59375 C 12.65625 -2.863281 14.097656 -2.5 15.703125 -2.5 Z M 15.703125 -2.5 "/></g></g><g style="fill:#ffffff;fill-opacity:1;"><g transform="translate(29.77217, 175.320428)"><path style="stroke:none" d="M 13.515625 0.21875 C 11.328125 0.21875 9.359375 -0.273438 7.609375 -1.265625 C 5.859375 -2.253906 4.484375 -3.625 3.484375 -5.375 C 2.484375 -7.125 1.984375 -9.101562 1.984375 -11.3125 C 1.984375 -13.519531 2.484375 -15.5 3.484375 -17.25 C 4.484375 -19 5.859375 -20.363281 7.609375 -21.34375 C 9.359375 -22.320312 11.328125 -22.8125 13.515625 -22.8125 C 15.691406 -22.8125 17.65625 -22.320312 19.40625 -21.34375 C 21.15625 -20.363281 22.523438 -19 23.515625 -17.25 C 24.503906 -15.5 25 -13.519531 25 -11.3125 C 25 -9.101562 24.503906 -7.125 23.515625 -5.375 C 22.523438 -3.625 21.15625 -2.253906 19.40625 -1.265625 C 17.65625 -0.273438 15.691406 0.21875 13.515625 0.21875 Z M 13.515625 -2.5 C 15.117188 -2.5 16.554688 -2.863281 17.828125 -3.59375 C 19.109375 -4.320312 20.109375 -5.359375 20.828125 -6.703125 C 21.546875 -8.054688 21.90625 -9.59375 21.90625 -11.3125 C 21.90625 -13.039062 21.546875 -14.578125 20.828125 -15.921875 C 20.109375 -17.265625 19.109375 -18.300781 17.828125 -19.03125 C 16.554688 -19.769531 15.117188 -20.140625 13.515625 -20.140625 C 11.910156 -20.140625 10.46875 -19.769531 9.1875 -19.03125 C 7.90625 -18.300781 6.898438 -17.265625 6.171875 -15.921875 C 5.441406 -14.578125 5.078125 -13.039062 5.078125 -11.3125 C 5.078125 -9.59375 5.441406 -8.054688 6.171875 -6.703125 C 6.898438 -5.359375 7.90625 -4.320312 9.1875 -3.59375 C 10.46875 -2.863281 11.910156 -2.5 13.515625 -2.5 Z M 13.515625 -2.5 "/></g></g><g style="fill:#ffffff;fill-opacity:1;"><g transform="translate(56.746585, 175.320428)"><path style="stroke:none" d="M 7.1875 -18.203125 C 7.90625 -19.722656 8.972656 -20.867188 10.390625 -21.640625 C 11.804688 -22.421875 13.5625 -22.8125 15.65625 -22.8125 L 15.65625 -19.84375 L 14.9375 -19.875 C 12.550781 -19.875 10.679688 -19.140625 9.328125 -17.671875 C 7.984375 -16.210938 7.3125 -14.164062 7.3125 -11.53125 L 7.3125 0 L 4.265625 0 L 4.265625 -22.640625 L 7.1875 -22.640625 Z M 7.1875 -18.203125 "/></g></g><g style="fill:#d0a944;fill-opacity:1;"><g transform="translate(422.601314, 190.327556)"><path style="stroke:none" d="M 7.328125 -7.125 C 8.378906 -7.125 9.25 -6.769531 9.9375 -6.0625 C 10.625 -5.351562 10.96875 -4.472656 10.96875 -3.421875 C 10.96875 -2.878906 10.882812 -2.285156 10.71875 -1.640625 C 10.5625 -1.003906 10.328125 -0.273438 10.015625 0.546875 L 7.125 10.015625 L 3.84375 10.015625 L 6.171875 0.0625 C 5.441406 -0.164062 4.847656 -0.585938 4.390625 -1.203125 C 3.929688 -1.816406 3.703125 -2.554688 3.703125 -3.421875 C 3.703125 -4.472656 4.046875 -5.351562 4.734375 -6.0625 C 5.421875 -6.769531 6.285156 -7.125 7.328125 -7.125 Z M 7.328125 -7.125 "/></g></g><g style="fill:#d0a944;fill-opacity:1;"><g transform="translate(436.720484, 190.327556)"><path style="stroke:none" d="M 23.4375 -28.71875 C 26.59375 -28.71875 29.390625 -28.125 31.828125 -26.9375 C 34.273438 -25.75 36.1875 -24.066406 37.5625 -21.890625 C 38.9375 -19.722656 39.625 -17.203125 39.625 -14.328125 C 39.625 -11.398438 38.914062 -8.816406 37.5 -6.578125 C 36.082031 -4.335938 34.128906 -2.613281 31.640625 -1.40625 C 29.148438 -0.195312 26.347656 0.40625 23.234375 0.40625 C 16.878906 0.40625 12.007812 -1.679688 8.625 -5.859375 C 5.25 -10.035156 3.5625 -15.941406 3.5625 -23.578125 C 3.5625 -28.921875 4.472656 -33.441406 6.296875 -37.140625 C 8.128906 -40.847656 10.691406 -43.648438 13.984375 -45.546875 C 17.273438 -47.441406 21.113281 -48.390625 25.5 -48.390625 C 30.25 -48.390625 34.039062 -47.523438 36.875 -45.796875 L 34.890625 -41.8125 C 32.609375 -43.320312 29.5 -44.078125 25.5625 -44.078125 C 20.257812 -44.078125 16.097656 -42.394531 13.078125 -39.03125 C 10.066406 -35.675781 8.5625 -30.800781 8.5625 -24.40625 C 8.5625 -23.257812 8.632812 -21.957031 8.78125 -20.5 C 9.96875 -23.101562 11.863281 -25.125 14.46875 -26.5625 C 17.070312 -28 20.0625 -28.71875 23.4375 -28.71875 Z M 23.03125 -3.765625 C 26.5 -3.765625 29.316406 -4.710938 31.484375 -6.609375 C 33.660156 -8.503906 34.75 -11.03125 34.75 -14.1875 C 34.75 -17.34375 33.660156 -19.859375 31.484375 -21.734375 C 29.316406 -23.609375 26.382812 -24.546875 22.6875 -24.546875 C 20.269531 -24.546875 18.132812 -24.085938 16.28125 -23.171875 C 14.425781 -22.253906 12.972656 -20.992188 11.921875 -19.390625 C 10.867188 -17.796875 10.34375 -16.015625 10.34375 -14.046875 C 10.34375 -12.222656 10.832031 -10.535156 11.8125 -8.984375 C 12.800781 -7.429688 14.253906 -6.171875 16.171875 -5.203125 C 18.097656 -4.242188 20.382812 -3.765625 23.03125 -3.765625 Z M 23.03125 -3.765625 "/></g></g><g style="fill:#d0a944;fill-opacity:1;"><g transform="translate(478.050049, 190.327556)"><path style="stroke:none" d="M 22.6875 0.40625 C 18.988281 0.40625 15.6875 -0.570312 12.78125 -2.53125 C 9.882812 -4.5 7.625 -7.320312 6 -11 C 4.375 -14.675781 3.5625 -19.003906 3.5625 -23.984375 C 3.5625 -28.972656 4.375 -33.304688 6 -36.984375 C 7.625 -40.660156 9.882812 -43.476562 12.78125 -45.4375 C 15.6875 -47.40625 18.988281 -48.390625 22.6875 -48.390625 C 26.382812 -48.390625 29.6875 -47.40625 32.59375 -45.4375 C 35.5 -43.476562 37.769531 -40.660156 39.40625 -36.984375 C 41.050781 -33.304688 41.875 -28.972656 41.875 -23.984375 C 41.875 -19.003906 41.050781 -14.675781 39.40625 -11 C 37.769531 -7.320312 35.5 -4.5 32.59375 -2.53125 C 29.6875 -0.570312 26.382812 0.40625 22.6875 0.40625 Z M 22.6875 -4.109375 C 25.476562 -4.109375 27.9375 -4.882812 30.0625 -6.4375 C 32.1875 -8 33.84375 -10.265625 35.03125 -13.234375 C 36.21875 -16.203125 36.8125 -19.785156 36.8125 -23.984375 C 36.8125 -28.191406 36.21875 -31.78125 35.03125 -34.75 C 33.84375 -37.71875 32.1875 -39.976562 30.0625 -41.53125 C 27.9375 -43.09375 25.476562 -43.875 22.6875 -43.875 C 19.894531 -43.875 17.4375 -43.09375 15.3125 -41.53125 C 13.1875 -39.976562 11.53125 -37.71875 10.34375 -34.75 C 9.15625 -31.78125 8.5625 -28.191406 8.5625 -23.984375 C 8.5625 -19.785156 9.15625 -16.203125 10.34375 -13.234375 C 11.53125 -10.265625 13.1875 -8 15.3125 -6.4375 C 17.4375 -4.882812 19.894531 -4.109375 22.6875 -4.109375 Z M 22.6875 -4.109375 "/></g></g><g style="fill:#ffffff;fill-opacity:1;"><g transform="translate(22.847263, 324.422778)"><path style="stroke:none" d="M 17.46875 0.28125 C 14.65625 0.28125 12.113281 -0.359375 9.84375 -1.640625 C 7.582031 -2.921875 5.800781 -4.691406 4.5 -6.953125 C 3.207031 -9.210938 2.5625 -11.773438 2.5625 -14.640625 C 2.5625 -17.492188 3.207031 -20.050781 4.5 -22.3125 C 5.800781 -24.570312 7.582031 -26.332031 9.84375 -27.59375 C 12.113281 -28.851562 14.65625 -29.484375 17.46875 -29.484375 C 20.289062 -29.484375 22.832031 -28.851562 25.09375 -27.59375 C 27.351562 -26.332031 29.125 -24.570312 30.40625 -22.3125 C 31.6875 -20.050781 32.328125 -17.492188 32.328125 -14.640625 C 32.328125 -11.773438 31.6875 -9.210938 30.40625 -6.953125 C 29.125 -4.691406 27.351562 -2.921875 25.09375 -1.640625 C 22.832031 -0.359375 20.289062 0.28125 17.46875 0.28125 Z M 17.46875 -3.234375 C 19.550781 -3.234375 21.414062 -3.703125 23.0625 -4.640625 C 24.71875 -5.585938 26.007812 -6.929688 26.9375 -8.671875 C 27.863281 -10.421875 28.328125 -12.410156 28.328125 -14.640625 C 28.328125 -16.859375 27.863281 -18.835938 26.9375 -20.578125 C 26.007812 -22.328125 24.71875 -23.675781 23.0625 -24.625 C 21.414062 -25.570312 19.550781 -26.046875 17.46875 -26.046875 C 15.394531 -26.046875 13.53125 -25.570312 11.875 -24.625 C 10.226562 -23.675781 8.929688 -22.328125 7.984375 -20.578125 C 7.035156 -18.835938 6.5625 -16.859375 6.5625 -14.640625 C 6.5625 -12.410156 7.035156 -10.421875 7.984375 -8.671875 C 8.929688 -6.929688 10.226562 -5.585938 11.875 -4.640625 C 13.53125 -3.703125 15.394531 -3.234375 17.46875 -3.234375 Z M 17.46875 -3.234375 "/></g></g><g style="fill:#ffffff;fill-opacity:1;"><g transform="translate(57.388296, 324.422778)"><path style="stroke:none" d="M 31.875 -29.265625 L 31.875 0 L 28.09375 0 L 28.09375 -5.34375 C 27.0625 -3.5625 25.632812 -2.175781 23.8125 -1.1875 C 22 -0.207031 19.921875 0.28125 17.578125 0.28125 C 13.753906 0.28125 10.738281 -0.785156 8.53125 -2.921875 C 6.332031 -5.054688 5.234375 -8.179688 5.234375 -12.296875 L 5.234375 -29.265625 L 9.1875 -29.265625 L 9.1875 -12.6875 C 9.1875 -9.601562 9.945312 -7.265625 11.46875 -5.671875 C 12.988281 -4.078125 15.15625 -3.28125 17.96875 -3.28125 C 21.050781 -3.28125 23.484375 -4.21875 25.265625 -6.09375 C 27.046875 -7.96875 27.9375 -10.570312 27.9375 -13.90625 L 27.9375 -29.265625 Z M 31.875 -29.265625 "/></g></g><g style="fill:#ffffff;fill-opacity:1;"><g transform="translate(94.487933, 324.422778)"><path style="stroke:none" d=""/></g></g><g style="fill:#ffffff;fill-opacity:1;"><g transform="translate(108.727012, 324.422778)"><path style="stroke:none" d="M 19.03125 -23.3125 C 21.59375 -23.3125 23.863281 -22.828125 25.84375 -21.859375 C 27.832031 -20.898438 29.378906 -19.539062 30.484375 -17.78125 C 31.597656 -16.019531 32.15625 -13.96875 32.15625 -11.625 C 32.15625 -9.25 31.578125 -7.148438 30.421875 -5.328125 C 29.273438 -3.515625 27.691406 -2.117188 25.671875 -1.140625 C 23.648438 -0.160156 21.378906 0.328125 18.859375 0.328125 C 13.703125 0.328125 9.75 -1.363281 7 -4.75 C 4.257812 -8.144531 2.890625 -12.941406 2.890625 -19.140625 C 2.890625 -23.484375 3.628906 -27.15625 5.109375 -30.15625 C 6.597656 -33.164062 8.675781 -35.4375 11.34375 -36.96875 C 14.019531 -38.507812 17.140625 -39.28125 20.703125 -39.28125 C 24.554688 -39.28125 27.632812 -38.578125 29.9375 -37.171875 L 28.328125 -33.9375 C 26.472656 -35.164062 23.945312 -35.78125 20.75 -35.78125 C 16.445312 -35.78125 13.070312 -34.414062 10.625 -31.6875 C 8.175781 -28.957031 6.953125 -25 6.953125 -19.8125 C 6.953125 -18.882812 7.007812 -17.828125 7.125 -16.640625 C 8.082031 -18.753906 9.617188 -20.394531 11.734375 -21.5625 C 13.847656 -22.726562 16.28125 -23.3125 19.03125 -23.3125 Z M 18.6875 -3.0625 C 21.507812 -3.0625 23.800781 -3.828125 25.5625 -5.359375 C 27.320312 -6.898438 28.203125 -8.953125 28.203125 -11.515625 C 28.203125 -14.078125 27.320312 -16.117188 25.5625 -17.640625 C 23.800781 -19.160156 21.421875 -19.921875 18.421875 -19.921875 C 16.453125 -19.921875 14.71875 -19.546875 13.21875 -18.796875 C 11.71875 -18.054688 10.539062 -17.035156 9.6875 -15.734375 C 8.832031 -14.441406 8.40625 -13 8.40625 -11.40625 C 8.40625 -9.925781 8.800781 -8.550781 9.59375 -7.28125 C 10.394531 -6.019531 11.570312 -5 13.125 -4.21875 C 14.6875 -3.445312 16.539062 -3.0625 18.6875 -3.0625 Z M 18.6875 -3.0625 "/></g></g><g style="fill:#ffffff;fill-opacity:1;"><g transform="translate(142.266856, 324.422778)"><path style="stroke:none" d="M 24.140625 0 L 14.859375 -12.234375 L 5.515625 0 L 1.0625 0 L 12.625 -15.015625 L 1.609375 -29.265625 L 6.0625 -29.265625 L 14.859375 -17.8125 L 23.640625 -29.265625 L 27.984375 -29.265625 L 16.96875 -15.015625 L 28.65625 0 Z M 24.140625 0 "/></g></g><g style="fill:#ffffff;fill-opacity:1;"><g transform="translate(171.635068, 324.422778)"><path style="stroke:none" d=""/></g></g><g style="fill:#ffffff;fill-opacity:1;"><g transform="translate(185.874148, 324.422778)"><path style="stroke:none" d="M 32.21875 -41.28125 L 32.21875 0 L 28.4375 0 L 28.4375 -5.78125 C 27.25 -3.820312 25.679688 -2.320312 23.734375 -1.28125 C 21.785156 -0.238281 19.585938 0.28125 17.140625 0.28125 C 14.390625 0.28125 11.898438 -0.347656 9.671875 -1.609375 C 7.453125 -2.867188 5.710938 -4.628906 4.453125 -6.890625 C 3.191406 -9.160156 2.5625 -11.742188 2.5625 -14.640625 C 2.5625 -17.523438 3.191406 -20.097656 4.453125 -22.359375 C 5.710938 -24.628906 7.453125 -26.382812 9.671875 -27.625 C 11.898438 -28.863281 14.390625 -29.484375 17.140625 -29.484375 C 19.515625 -29.484375 21.65625 -28.992188 23.5625 -28.015625 C 25.46875 -27.035156 27.035156 -25.597656 28.265625 -23.703125 L 28.265625 -41.28125 Z M 17.46875 -3.234375 C 19.507812 -3.234375 21.351562 -3.703125 23 -4.640625 C 24.65625 -5.585938 25.957031 -6.929688 26.90625 -8.671875 C 27.851562 -10.421875 28.328125 -12.410156 28.328125 -14.640625 C 28.328125 -16.859375 27.851562 -18.835938 26.90625 -20.578125 C 25.957031 -22.328125 24.65625 -23.675781 23 -24.625 C 21.351562 -25.570312 19.507812 -26.046875 17.46875 -26.046875 C 15.394531 -26.046875 13.53125 -25.570312 11.875 -24.625 C 10.226562 -23.675781 8.929688 -22.328125 7.984375 -20.578125 C 7.035156 -18.835938 6.5625 -16.859375 6.5625 -14.640625 C 6.5625 -12.410156 7.035156 -10.421875 7.984375 -8.671875 C 8.929688 -6.929688 10.226562 -5.585938 11.875 -4.640625 C 13.53125 -3.703125 15.394531 -3.234375 17.46875 -3.234375 Z M 17.46875 -3.234375 "/></g></g><g style="fill:#ffffff;fill-opacity:1;"><g transform="translate(223.251891, 324.422778)"><path style="stroke:none" d="M 30.984375 -13.40625 L 6.515625 -13.40625 C 6.734375 -10.363281 7.898438 -7.90625 10.015625 -6.03125 C 12.128906 -4.164062 14.800781 -3.234375 18.03125 -3.234375 C 19.84375 -3.234375 21.507812 -3.554688 23.03125 -4.203125 C 24.550781 -4.847656 25.867188 -5.800781 26.984375 -7.0625 L 29.21875 -4.5 C 27.914062 -2.945312 26.289062 -1.757812 24.34375 -0.9375 C 22.394531 -0.125 20.253906 0.28125 17.921875 0.28125 C 14.910156 0.28125 12.242188 -0.359375 9.921875 -1.640625 C 7.609375 -2.921875 5.800781 -4.691406 4.5 -6.953125 C 3.207031 -9.210938 2.5625 -11.773438 2.5625 -14.640625 C 2.5625 -17.492188 3.179688 -20.050781 4.421875 -22.3125 C 5.660156 -24.570312 7.363281 -26.332031 9.53125 -27.59375 C 11.707031 -28.851562 14.148438 -29.484375 16.859375 -29.484375 C 19.566406 -29.484375 21.992188 -28.851562 24.140625 -27.59375 C 26.296875 -26.332031 27.984375 -24.578125 29.203125 -22.328125 C 30.429688 -20.085938 31.046875 -17.523438 31.046875 -14.640625 Z M 16.859375 -26.09375 C 14.035156 -26.09375 11.671875 -25.191406 9.765625 -23.390625 C 7.859375 -21.597656 6.773438 -19.253906 6.515625 -16.359375 L 27.265625 -16.359375 C 27.003906 -19.253906 25.914062 -21.597656 24 -23.390625 C 22.09375 -25.191406 19.710938 -26.09375 16.859375 -26.09375 Z M 16.859375 -26.09375 "/></g></g><g style="fill:#d0a944;fill-opacity:1;"><g transform="translate(256.521645, 324.422778)"><path style="stroke:none" d=""/></g></g><g style="fill:#d0a944;fill-opacity:1;"><g transform="translate(270.760725, 324.422778)"><path style="stroke:none" d="M 32.9375 0 L 24.03125 -12.515625 C 23.03125 -12.410156 21.992188 -12.359375 20.921875 -12.359375 L 10.453125 -12.359375 L 10.453125 0 L 6.34375 0 L 6.34375 -38.953125 L 20.921875 -38.953125 C 25.890625 -38.953125 29.78125 -37.765625 32.59375 -35.390625 C 35.414062 -33.015625 36.828125 -29.75 36.828125 -25.59375 C 36.828125 -22.550781 36.054688 -19.984375 34.515625 -17.890625 C 32.984375 -15.796875 30.789062 -14.285156 27.9375 -13.359375 L 37.453125 0 Z M 20.8125 -15.859375 C 24.664062 -15.859375 27.613281 -16.707031 29.65625 -18.40625 C 31.695312 -20.113281 32.71875 -22.507812 32.71875 -25.59375 C 32.71875 -28.75 31.695312 -31.171875 29.65625 -32.859375 C 27.613281 -34.546875 24.664062 -35.390625 20.8125 -35.390625 L 10.453125 -35.390625 L 10.453125 -15.859375 Z M 20.8125 -15.859375 "/></g></g><g style="fill:#d0a944;fill-opacity:1;"><g transform="translate(310.641449, 324.422778)"><path style="stroke:none" d="M 31.609375 -10.296875 C 31.609375 -7.441406 30.507812 -5.019531 28.3125 -3.03125 C 26.125 -1.050781 22.914062 0.0507812 18.6875 0.28125 L 18.6875 6.671875 L 15.90625 6.671875 L 15.90625 0.328125 C 13.195312 0.179688 10.644531 -0.34375 8.25 -1.25 C 5.863281 -2.15625 3.984375 -3.316406 2.609375 -4.734375 L 4.234375 -7.90625 C 5.523438 -6.644531 7.21875 -5.585938 9.3125 -4.734375 C 11.414062 -3.878906 13.613281 -3.378906 15.90625 -3.234375 L 15.90625 -17.859375 C 13.351562 -18.492188 11.222656 -19.171875 9.515625 -19.890625 C 7.804688 -20.609375 6.382812 -21.664062 5.25 -23.0625 C 4.125 -24.457031 3.5625 -26.300781 3.5625 -28.59375 C 3.5625 -31.457031 4.597656 -33.859375 6.671875 -35.796875 C 8.753906 -37.742188 11.832031 -38.890625 15.90625 -39.234375 L 15.90625 -45.625 L 18.6875 -45.625 L 18.6875 -39.28125 C 20.800781 -39.207031 22.851562 -38.863281 24.84375 -38.25 C 26.832031 -37.632812 28.546875 -36.828125 29.984375 -35.828125 L 28.59375 -32.546875 C 27.070312 -33.515625 25.457031 -34.273438 23.75 -34.828125 C 22.050781 -35.390625 20.363281 -35.707031 18.6875 -35.78125 L 18.6875 -21.03125 C 21.4375 -20.363281 23.679688 -19.6875 25.421875 -19 C 27.171875 -18.3125 28.640625 -17.265625 29.828125 -15.859375 C 31.015625 -14.453125 31.609375 -12.597656 31.609375 -10.296875 Z M 7.625 -28.703125 C 7.625 -26.773438 8.335938 -25.3125 9.765625 -24.3125 C 11.191406 -23.3125 13.238281 -22.457031 15.90625 -21.75 L 15.90625 -35.671875 C 13.164062 -35.441406 11.097656 -34.6875 9.703125 -33.40625 C 8.316406 -32.132812 7.625 -30.566406 7.625 -28.703125 Z M 18.6875 -3.234375 C 21.625 -3.453125 23.832031 -4.171875 25.3125 -5.390625 C 26.800781 -6.617188 27.546875 -8.179688 27.546875 -10.078125 C 27.546875 -12.078125 26.785156 -13.578125 25.265625 -14.578125 C 23.742188 -15.578125 21.550781 -16.429688 18.6875 -17.140625 Z M 18.6875 -3.234375 "/></g></g><g style="fill:#d0a944;fill-opacity:1;"><g transform="translate(344.515022, 324.422778)"><path style="stroke:none" d="M 19.03125 -23.3125 C 21.59375 -23.3125 23.863281 -22.828125 25.84375 -21.859375 C 27.832031 -20.898438 29.378906 -19.539062 30.484375 -17.78125 C 31.597656 -16.019531 32.15625 -13.96875 32.15625 -11.625 C 32.15625 -9.25 31.578125 -7.148438 30.421875 -5.328125 C 29.273438 -3.515625 27.691406 -2.117188 25.671875 -1.140625 C 23.648438 -0.160156 21.378906 0.328125 18.859375 0.328125 C 13.703125 0.328125 9.75 -1.363281 7 -4.75 C 4.257812 -8.144531 2.890625 -12.941406 2.890625 -19.140625 C 2.890625 -23.484375 3.628906 -27.15625 5.109375 -30.15625 C 6.597656 -33.164062 8.675781 -35.4375 11.34375 -36.96875 C 14.019531 -38.507812 17.140625 -39.28125 20.703125 -39.28125 C 24.554688 -39.28125 27.632812 -38.578125 29.9375 -37.171875 L 28.328125 -33.9375 C 26.472656 -35.164062 23.945312 -35.78125 20.75 -35.78125 C 16.445312 -35.78125 13.070312 -34.414062 10.625 -31.6875 C 8.175781 -28.957031 6.953125 -25 6.953125 -19.8125 C 6.953125 -18.882812 7.007812 -17.828125 7.125 -16.640625 C 8.082031 -18.753906 9.617188 -20.394531 11.734375 -21.5625 C 13.847656 -22.726562 16.28125 -23.3125 19.03125 -23.3125 Z M 18.6875 -3.0625 C 21.507812 -3.0625 23.800781 -3.828125 25.5625 -5.359375 C 27.320312 -6.898438 28.203125 -8.953125 28.203125 -11.515625 C 28.203125 -14.078125 27.320312 -16.117188 25.5625 -17.640625 C 23.800781 -19.160156 21.421875 -19.921875 18.421875 -19.921875 C 16.453125 -19.921875 14.71875 -19.546875 13.21875 -18.796875 C 11.71875 -18.054688 10.539062 -17.035156 9.6875 -15.734375 C 8.832031 -14.441406 8.40625 -13 8.40625 -11.40625 C 8.40625 -9.925781 8.800781 -8.550781 9.59375 -7.28125 C 10.394531 -6.019531 11.570312 -5 13.125 -4.21875 C 14.6875 -3.445312 16.539062 -3.0625 18.6875 -3.0625 Z M 18.6875 -3.0625 "/></g></g><g style="fill:#d0a944;fill-opacity:1;"><g transform="translate(378.054865, 324.422778)"><path style="stroke:none" d="M 25.203125 -20.421875 C 27.648438 -19.609375 29.53125 -18.382812 30.84375 -16.75 C 32.164062 -15.113281 32.828125 -13.144531 32.828125 -10.84375 C 32.828125 -8.582031 32.210938 -6.609375 30.984375 -4.921875 C 29.765625 -3.234375 28.015625 -1.9375 25.734375 -1.03125 C 23.453125 -0.125 20.769531 0.328125 17.6875 0.328125 C 13.019531 0.328125 9.347656 -0.671875 6.671875 -2.671875 C 4.003906 -4.671875 2.671875 -7.394531 2.671875 -10.84375 C 2.671875 -13.1875 3.3125 -15.164062 4.59375 -16.78125 C 5.875 -18.394531 7.738281 -19.609375 10.1875 -20.421875 C 8.175781 -21.203125 6.648438 -22.320312 5.609375 -23.78125 C 4.578125 -25.25 4.0625 -26.984375 4.0625 -28.984375 C 4.0625 -32.140625 5.296875 -34.644531 7.765625 -36.5 C 10.234375 -38.351562 13.539062 -39.28125 17.6875 -39.28125 C 20.4375 -39.28125 22.835938 -38.863281 24.890625 -38.03125 C 26.953125 -37.195312 28.554688 -36 29.703125 -34.4375 C 30.859375 -32.882812 31.4375 -31.066406 31.4375 -28.984375 C 31.4375 -26.984375 30.894531 -25.25 29.8125 -23.78125 C 28.738281 -22.320312 27.203125 -21.203125 25.203125 -20.421875 Z M 8.0625 -28.875 C 8.0625 -26.726562 8.914062 -25.019531 10.625 -23.75 C 12.332031 -22.488281 14.6875 -21.859375 17.6875 -21.859375 C 20.695312 -21.859375 23.0625 -22.488281 24.78125 -23.75 C 26.507812 -25.019531 27.375 -26.710938 27.375 -28.828125 C 27.375 -31.015625 26.492188 -32.738281 24.734375 -34 C 22.972656 -35.257812 20.625 -35.890625 17.6875 -35.890625 C 14.726562 -35.890625 12.382812 -35.257812 10.65625 -34 C 8.925781 -32.738281 8.0625 -31.03125 8.0625 -28.875 Z M 17.6875 -3.0625 C 21.144531 -3.0625 23.84375 -3.765625 25.78125 -5.171875 C 27.726562 -6.578125 28.703125 -8.488281 28.703125 -10.90625 C 28.703125 -13.3125 27.726562 -15.207031 25.78125 -16.59375 C 23.84375 -17.988281 21.144531 -18.6875 17.6875 -18.6875 C 14.28125 -18.6875 11.601562 -17.988281 9.65625 -16.59375 C 7.707031 -15.207031 6.734375 -13.3125 6.734375 -10.90625 C 6.734375 -8.457031 7.695312 -6.535156 9.625 -5.140625 C 11.550781 -3.753906 14.238281 -3.0625 17.6875 -3.0625 Z M 17.6875 -3.0625 "/></g></g><g style="fill:#d0a944;fill-opacity:1;"><g transform="translate(413.207734, 324.422778)"><path style="stroke:none" d="M 5.953125 -5.78125 C 6.804688 -5.78125 7.507812 -5.492188 8.0625 -4.921875 C 8.625 -4.347656 8.90625 -3.632812 8.90625 -2.78125 C 8.90625 -2.332031 8.835938 -1.847656 8.703125 -1.328125 C 8.578125 -0.816406 8.382812 -0.226562 8.125 0.4375 L 5.78125 8.125 L 3.109375 8.125 L 5 0.0625 C 4.414062 -0.125 3.9375 -0.46875 3.5625 -0.96875 C 3.1875 -1.46875 3 -2.070312 3 -2.78125 C 3 -3.632812 3.273438 -4.347656 3.828125 -4.921875 C 4.390625 -5.492188 5.097656 -5.78125 5.953125 -5.78125 Z M 5.953125 -5.78125 "/></g></g><g style="fill:#d0a944;fill-opacity:1;"><g transform="translate(424.665726, 324.422778)"><path style="stroke:none" d="M 29.484375 -3.5625 L 29.484375 0 L 2.171875 0 L 2.171875 -2.84375 L 18.359375 -18.6875 C 20.398438 -20.695312 21.78125 -22.429688 22.5 -23.890625 C 23.226562 -25.359375 23.59375 -26.835938 23.59375 -28.328125 C 23.59375 -30.617188 22.800781 -32.40625 21.21875 -33.6875 C 19.644531 -34.96875 17.394531 -35.609375 14.46875 -35.609375 C 9.90625 -35.609375 6.363281 -34.160156 3.84375 -31.265625 L 1 -33.71875 C 2.519531 -35.5 4.457031 -36.867188 6.8125 -37.828125 C 9.164062 -38.796875 11.828125 -39.28125 14.796875 -39.28125 C 18.765625 -39.28125 21.90625 -38.34375 24.21875 -36.46875 C 26.539062 -34.59375 27.703125 -32.023438 27.703125 -28.765625 C 27.703125 -26.765625 27.253906 -24.835938 26.359375 -22.984375 C 25.472656 -21.128906 23.789062 -18.992188 21.3125 -16.578125 L 8.0625 -3.5625 Z M 29.484375 -3.5625 "/></g></g><g style="fill:#d0a944;fill-opacity:1;"><g transform="translate(455.925071, 324.422778)"><path style="stroke:none" d="M 19.03125 -23.3125 C 21.59375 -23.3125 23.863281 -22.828125 25.84375 -21.859375 C 27.832031 -20.898438 29.378906 -19.539062 30.484375 -17.78125 C 31.597656 -16.019531 32.15625 -13.96875 32.15625 -11.625 C 32.15625 -9.25 31.578125 -7.148438 30.421875 -5.328125 C 29.273438 -3.515625 27.691406 -2.117188 25.671875 -1.140625 C 23.648438 -0.160156 21.378906 0.328125 18.859375 0.328125 C 13.703125 0.328125 9.75 -1.363281 7 -4.75 C 4.257812 -8.144531 2.890625 -12.941406 2.890625 -19.140625 C 2.890625 -23.484375 3.628906 -27.15625 5.109375 -30.15625 C 6.597656 -33.164062 8.675781 -35.4375 11.34375 -36.96875 C 14.019531 -38.507812 17.140625 -39.28125 20.703125 -39.28125 C 24.554688 -39.28125 27.632812 -38.578125 29.9375 -37.171875 L 28.328125 -33.9375 C 26.472656 -35.164062 23.945312 -35.78125 20.75 -35.78125 C 16.445312 -35.78125 13.070312 -34.414062 10.625 -31.6875 C 8.175781 -28.957031 6.953125 -25 6.953125 -19.8125 C 6.953125 -18.882812 7.007812 -17.828125 7.125 -16.640625 C 8.082031 -18.753906 9.617188 -20.394531 11.734375 -21.5625 C 13.847656 -22.726562 16.28125 -23.3125 19.03125 -23.3125 Z M 18.6875 -3.0625 C 21.507812 -3.0625 23.800781 -3.828125 25.5625 -5.359375 C 27.320312 -6.898438 28.203125 -8.953125 28.203125 -11.515625 C 28.203125 -14.078125 27.320312 -16.117188 25.5625 -17.640625 C 23.800781 -19.160156 21.421875 -19.921875 18.421875 -19.921875 C 16.453125 -19.921875 14.71875 -19.546875 13.21875 -18.796875 C 11.71875 -18.054688 10.539062 -17.035156 9.6875 -15.734375 C 8.832031 -14.441406 8.40625 -13 8.40625 -11.40625 C 8.40625 -9.925781 8.800781 -8.550781 9.59375 -7.28125 C 10.394531 -6.019531 11.570312 -5 13.125 -4.21875 C 14.6875 -3.445312 16.539062 -3.0625 18.6875 -3.0625 Z M 18.6875 -3.0625 "/></g></g></g></svg>