<svg xmlns="http://www.w3.org/2000/svg" xmlns:xlink="http://www.w3.org/1999/xlink" width="520" zoomAndPan="magnify" viewBox="0 0 390 202.499994" height="270" preserveAspectRatio="xMidYMid meet" version="1.2"><defs/><g id="4a6f1eeffa"><g style="fill:#d0a944;fill-opacity:1;"><g transform="translate(134.558668, 120.652613)"><path style="stroke:none" d="M 40.5625 -101.328125 C 54.507812 -101.328125 65.421875 -97.082031 73.296875 -88.59375 C 81.171875 -80.101562 85.109375 -67.882812 85.109375 -51.9375 C 85.109375 -40.65625 82.992188 -30.976562 78.765625 -22.90625 C 74.546875 -14.84375 68.59375 -8.722656 60.90625 -4.546875 C 53.21875 -0.378906 44.347656 1.703125 34.296875 1.703125 C 28.984375 1.703125 23.90625 1.113281 19.0625 -0.0625 C 14.226562 -1.25 10.101562 -2.9375 6.6875 -5.125 L 15.234375 -22.0625 C 20.066406 -18.738281 26.28125 -17.078125 33.875 -17.078125 C 42.3125 -17.078125 49 -19.566406 53.9375 -24.546875 C 58.875 -29.523438 61.53125 -36.710938 61.90625 -46.109375 C 55.925781 -40.128906 47.671875 -37.140625 37.140625 -37.140625 C 30.785156 -37.140625 25 -38.421875 19.78125 -40.984375 C 14.5625 -43.546875 10.429688 -47.175781 7.390625 -51.875 C 4.359375 -56.570312 2.84375 -62.003906 2.84375 -68.171875 C 2.84375 -74.804688 4.503906 -80.640625 7.828125 -85.671875 C 11.148438 -90.703125 15.679688 -94.566406 21.421875 -97.265625 C 27.160156 -99.972656 33.539062 -101.328125 40.5625 -101.328125 Z M 42.265625 -54.359375 C 47.296875 -54.359375 51.398438 -55.757812 54.578125 -58.5625 C 57.753906 -61.363281 59.34375 -64.945312 59.34375 -69.3125 C 59.34375 -73.675781 57.800781 -77.234375 54.71875 -79.984375 C 51.632812 -82.734375 47.390625 -84.109375 41.984375 -84.109375 C 37.046875 -84.109375 33.035156 -82.78125 29.953125 -80.125 C 26.867188 -77.46875 25.328125 -73.863281 25.328125 -69.3125 C 25.328125 -64.75 26.867188 -61.113281 29.953125 -58.40625 C 33.035156 -55.707031 37.140625 -54.359375 42.265625 -54.359375 Z M 42.265625 -54.359375 "/></g></g><g style="fill:#d0a944;fill-opacity:1;"><g transform="translate(225.196805, 120.652613)"><path style="stroke:none" d="M 40.5625 -101.328125 C 54.507812 -101.328125 65.421875 -97.082031 73.296875 -88.59375 C 81.171875 -80.101562 85.109375 -67.882812 85.109375 -51.9375 C 85.109375 -40.65625 82.992188 -30.976562 78.765625 -22.90625 C 74.546875 -14.84375 68.59375 -8.722656 60.90625 -4.546875 C 53.21875 -0.378906 44.347656 1.703125 34.296875 1.703125 C 28.984375 1.703125 23.90625 1.113281 19.0625 -0.0625 C 14.226562 -1.25 10.101562 -2.9375 6.6875 -5.125 L 15.234375 -22.0625 C 20.066406 -18.738281 26.28125 -17.078125 33.875 -17.078125 C 42.3125 -17.078125 49 -19.566406 53.9375 -24.546875 C 58.875 -29.523438 61.53125 -36.710938 61.90625 -46.109375 C 55.925781 -40.128906 47.671875 -37.140625 37.140625 -37.140625 C 30.785156 -37.140625 25 -38.421875 19.78125 -40.984375 C 14.5625 -43.546875 10.429688 -47.175781 7.390625 -51.875 C 4.359375 -56.570312 2.84375 -62.003906 2.84375 -68.171875 C 2.84375 -74.804688 4.503906 -80.640625 7.828125 -85.671875 C 11.148438 -90.703125 15.679688 -94.566406 21.421875 -97.265625 C 27.160156 -99.972656 33.539062 -101.328125 40.5625 -101.328125 Z M 42.265625 -54.359375 C 47.296875 -54.359375 51.398438 -55.757812 54.578125 -58.5625 C 57.753906 -61.363281 59.34375 -64.945312 59.34375 -69.3125 C 59.34375 -73.675781 57.800781 -77.234375 54.71875 -79.984375 C 51.632812 -82.734375 47.390625 -84.109375 41.984375 -84.109375 C 37.046875 -84.109375 33.035156 -82.78125 29.953125 -80.125 C 26.867188 -77.46875 25.328125 -73.863281 25.328125 -69.3125 C 25.328125 -64.75 26.867188 -61.113281 29.953125 -58.40625 C 33.035156 -55.707031 37.140625 -54.359375 42.265625 -54.359375 Z M 42.265625 -54.359375 "/></g></g><g style="fill:#d0a944;fill-opacity:1;"><g transform="translate(65.817395, 101.934195)"><path style="stroke:none" d="M 23.4375 0 L 17.09375 -8.90625 C 16.382812 -8.820312 15.644531 -8.78125 14.875 -8.78125 L 7.4375 -8.78125 L 7.4375 0 L 4.515625 0 L 4.515625 -27.703125 L 14.875 -27.703125 C 18.414062 -27.703125 21.1875 -26.859375 23.1875 -25.171875 C 25.195312 -23.484375 26.203125 -21.160156 26.203125 -18.203125 C 26.203125 -16.035156 25.65625 -14.207031 24.5625 -12.71875 C 23.46875 -11.226562 21.90625 -10.15625 19.875 -9.5 L 26.640625 0 Z M 14.796875 -11.28125 C 17.546875 -11.28125 19.644531 -11.882812 21.09375 -13.09375 C 22.539062 -14.3125 23.265625 -16.015625 23.265625 -18.203125 C 23.265625 -20.441406 22.539062 -22.160156 21.09375 -23.359375 C 19.644531 -24.566406 17.546875 -25.171875 14.796875 -25.171875 L 7.4375 -25.171875 L 7.4375 -11.28125 Z M 14.796875 -11.28125 "/></g></g><g style="fill:#d0a944;fill-opacity:1;"><g transform="translate(94.424944, 101.934195)"><path style="stroke:none" d="M 22.484375 -7.328125 C 22.484375 -5.296875 21.703125 -3.570312 20.140625 -2.15625 C 18.585938 -0.75 16.304688 0.0351562 13.296875 0.203125 L 13.296875 4.75 L 11.3125 4.75 L 11.3125 0.234375 C 9.394531 0.128906 7.582031 -0.242188 5.875 -0.890625 C 4.175781 -1.535156 2.835938 -2.359375 1.859375 -3.359375 L 3.015625 -5.625 C 3.929688 -4.726562 5.132812 -3.972656 6.625 -3.359375 C 8.113281 -2.753906 9.675781 -2.398438 11.3125 -2.296875 L 11.3125 -12.703125 C 9.5 -13.148438 7.984375 -13.628906 6.765625 -14.140625 C 5.554688 -14.660156 4.546875 -15.414062 3.734375 -16.40625 C 2.929688 -17.394531 2.53125 -18.707031 2.53125 -20.34375 C 2.53125 -22.375 3.269531 -24.082031 4.75 -25.46875 C 6.226562 -26.851562 8.414062 -27.664062 11.3125 -27.90625 L 11.3125 -32.453125 L 13.296875 -32.453125 L 13.296875 -27.9375 C 14.796875 -27.882812 16.253906 -27.640625 17.671875 -27.203125 C 19.085938 -26.773438 20.304688 -26.203125 21.328125 -25.484375 L 20.34375 -23.15625 C 19.257812 -23.84375 18.109375 -24.382812 16.890625 -24.78125 C 15.679688 -25.175781 14.484375 -25.398438 13.296875 -25.453125 L 13.296875 -14.953125 C 15.253906 -14.484375 16.851562 -14.003906 18.09375 -13.515625 C 19.332031 -13.023438 20.375 -12.28125 21.21875 -11.28125 C 22.0625 -10.28125 22.484375 -8.960938 22.484375 -7.328125 Z M 5.421875 -20.421875 C 5.421875 -19.046875 5.925781 -18.003906 6.9375 -17.296875 C 7.957031 -16.585938 9.414062 -15.976562 11.3125 -15.46875 L 11.3125 -25.375 C 9.363281 -25.207031 7.894531 -24.671875 6.90625 -23.765625 C 5.914062 -22.859375 5.421875 -21.742188 5.421875 -20.421875 Z M 13.296875 -2.296875 C 15.378906 -2.453125 16.945312 -2.960938 18 -3.828125 C 19.0625 -4.703125 19.59375 -5.8125 19.59375 -7.15625 C 19.59375 -8.582031 19.050781 -9.648438 17.96875 -10.359375 C 16.882812 -11.078125 15.328125 -11.6875 13.296875 -12.1875 Z M 13.296875 -2.296875 "/></g></g><g style="fill:#ffffff;fill-opacity:1;"><g transform="translate(64.74644, 59.122195)"><path style="stroke:none" d="M 13.046875 -18.703125 C 14.796875 -18.703125 16.375 -18.304688 17.78125 -17.515625 C 19.195312 -16.722656 20.300781 -15.609375 21.09375 -14.171875 C 21.894531 -12.742188 22.296875 -11.113281 22.296875 -9.28125 C 22.296875 -7.414062 21.894531 -5.765625 21.09375 -4.328125 C 20.300781 -2.898438 19.203125 -1.789062 17.796875 -1 C 16.398438 -0.21875 14.816406 0.171875 13.046875 0.171875 C 11.546875 0.171875 10.1875 -0.132812 8.96875 -0.75 C 7.757812 -1.375 6.769531 -2.289062 6 -3.5 L 6 6.84375 L 3.5 6.84375 L 3.5 -18.5625 L 5.890625 -18.5625 L 5.890625 -14.890625 C 6.640625 -16.109375 7.628906 -17.046875 8.859375 -17.703125 C 10.097656 -18.367188 11.492188 -18.703125 13.046875 -18.703125 Z M 12.875 -2.046875 C 14.164062 -2.046875 15.34375 -2.34375 16.40625 -2.9375 C 17.46875 -3.539062 18.296875 -4.394531 18.890625 -5.5 C 19.492188 -6.601562 19.796875 -7.863281 19.796875 -9.28125 C 19.796875 -10.6875 19.492188 -11.9375 18.890625 -13.03125 C 18.296875 -14.125 17.46875 -14.976562 16.40625 -15.59375 C 15.34375 -16.207031 14.164062 -16.515625 12.875 -16.515625 C 11.5625 -16.515625 10.378906 -16.207031 9.328125 -15.59375 C 8.285156 -14.976562 7.460938 -14.125 6.859375 -13.03125 C 6.265625 -11.9375 5.96875 -10.6875 5.96875 -9.28125 C 5.96875 -7.863281 6.265625 -6.601562 6.859375 -5.5 C 7.460938 -4.394531 8.285156 -3.539062 9.328125 -2.9375 C 10.378906 -2.34375 11.5625 -2.046875 12.875 -2.046875 Z M 12.875 -2.046875 "/></g></g><g style="fill:#ffffff;fill-opacity:1;"><g transform="translate(88.662105, 59.122195)"><path style="stroke:none" d="M 11.078125 0.171875 C 9.285156 0.171875 7.671875 -0.234375 6.234375 -1.046875 C 4.804688 -1.859375 3.679688 -2.976562 2.859375 -4.40625 C 2.035156 -5.84375 1.625 -7.46875 1.625 -9.28125 C 1.625 -11.09375 2.035156 -12.710938 2.859375 -14.140625 C 3.679688 -15.578125 4.804688 -16.695312 6.234375 -17.5 C 7.671875 -18.300781 9.285156 -18.703125 11.078125 -18.703125 C 12.867188 -18.703125 14.476562 -18.300781 15.90625 -17.5 C 17.34375 -16.695312 18.46875 -15.578125 19.28125 -14.140625 C 20.09375 -12.710938 20.5 -11.09375 20.5 -9.28125 C 20.5 -7.46875 20.09375 -5.84375 19.28125 -4.40625 C 18.46875 -2.976562 17.34375 -1.859375 15.90625 -1.046875 C 14.476562 -0.234375 12.867188 0.171875 11.078125 0.171875 Z M 11.078125 -2.046875 C 12.390625 -2.046875 13.566406 -2.34375 14.609375 -2.9375 C 15.660156 -3.539062 16.476562 -4.394531 17.0625 -5.5 C 17.65625 -6.601562 17.953125 -7.863281 17.953125 -9.28125 C 17.953125 -10.6875 17.65625 -11.941406 17.0625 -13.046875 C 16.476562 -14.160156 15.660156 -15.015625 14.609375 -15.609375 C 13.566406 -16.210938 12.390625 -16.515625 11.078125 -16.515625 C 9.765625 -16.515625 8.582031 -16.210938 7.53125 -15.609375 C 6.488281 -15.015625 5.664062 -14.160156 5.0625 -13.046875 C 4.457031 -11.941406 4.15625 -10.6875 4.15625 -9.28125 C 4.15625 -7.863281 4.457031 -6.601562 5.0625 -5.5 C 5.664062 -4.394531 6.488281 -3.539062 7.53125 -2.9375 C 8.582031 -2.34375 9.765625 -2.046875 11.078125 -2.046875 Z M 11.078125 -2.046875 "/></g></g><g style="fill:#ffffff;fill-opacity:1;"><g transform="translate(110.778803, 59.122195)"><path style="stroke:none" d="M 5.890625 -14.921875 C 6.484375 -16.171875 7.359375 -17.113281 8.515625 -17.75 C 9.679688 -18.382812 11.125 -18.703125 12.84375 -18.703125 L 12.84375 -16.265625 L 12.25 -16.296875 C 10.289062 -16.296875 8.757812 -15.695312 7.65625 -14.5 C 6.550781 -13.300781 6 -11.617188 6 -9.453125 L 6 0 L 3.5 0 L 3.5 -18.5625 L 5.890625 -18.5625 Z M 5.890625 -14.921875 "/></g></g><g style="fill:#ffffff;fill-opacity:1;"><g transform="translate(9.7023, 170.048691)"><path style="stroke:none" d="M 14.328125 0.234375 C 12.015625 0.234375 9.929688 -0.289062 8.078125 -1.34375 C 6.222656 -2.394531 4.757812 -3.847656 3.6875 -5.703125 C 2.625 -7.554688 2.09375 -9.65625 2.09375 -12 C 2.09375 -14.332031 2.625 -16.425781 3.6875 -18.28125 C 4.757812 -20.144531 6.222656 -21.59375 8.078125 -22.625 C 9.929688 -23.65625 12.015625 -24.171875 14.328125 -24.171875 C 16.628906 -24.171875 18.707031 -23.65625 20.5625 -22.625 C 22.425781 -21.59375 23.878906 -20.144531 24.921875 -18.28125 C 25.972656 -16.425781 26.5 -14.332031 26.5 -12 C 26.5 -9.65625 25.972656 -7.554688 24.921875 -5.703125 C 23.878906 -3.847656 22.425781 -2.394531 20.5625 -1.34375 C 18.707031 -0.289062 16.628906 0.234375 14.328125 0.234375 Z M 14.328125 -2.640625 C 16.023438 -2.640625 17.550781 -3.023438 18.90625 -3.796875 C 20.257812 -4.578125 21.316406 -5.679688 22.078125 -7.109375 C 22.835938 -8.546875 23.21875 -10.175781 23.21875 -12 C 23.21875 -13.820312 22.835938 -15.445312 22.078125 -16.875 C 21.316406 -18.300781 20.257812 -19.398438 18.90625 -20.171875 C 17.550781 -20.953125 16.023438 -21.34375 14.328125 -21.34375 C 12.617188 -21.34375 11.085938 -20.953125 9.734375 -20.171875 C 8.378906 -19.398438 7.3125 -18.300781 6.53125 -16.875 C 5.757812 -15.445312 5.375 -13.820312 5.375 -12 C 5.375 -10.175781 5.757812 -8.546875 6.53125 -7.109375 C 7.3125 -5.679688 8.378906 -4.578125 9.734375 -3.796875 C 11.085938 -3.023438 12.617188 -2.640625 14.328125 -2.640625 Z M 14.328125 -2.640625 "/></g></g><g style="fill:#ffffff;fill-opacity:1;"><g transform="translate(38.022971, 170.048691)"><path style="stroke:none" d="M 26.140625 -23.984375 L 26.140625 0 L 23.03125 0 L 23.03125 -4.375 C 22.175781 -2.914062 21.003906 -1.78125 19.515625 -0.96875 C 18.023438 -0.164062 16.320312 0.234375 14.40625 0.234375 C 11.28125 0.234375 8.8125 -0.640625 7 -2.390625 C 5.1875 -4.140625 4.28125 -6.703125 4.28125 -10.078125 L 4.28125 -23.984375 L 7.53125 -23.984375 L 7.53125 -10.40625 C 7.53125 -7.875 8.148438 -5.953125 9.390625 -4.640625 C 10.640625 -3.335938 12.421875 -2.6875 14.734375 -2.6875 C 17.253906 -2.6875 19.242188 -3.453125 20.703125 -4.984375 C 22.160156 -6.523438 22.890625 -8.664062 22.890625 -11.40625 L 22.890625 -23.984375 Z M 26.140625 -23.984375 "/></g></g><g style="fill:#ffffff;fill-opacity:1;"><g transform="translate(68.441477, 170.048691)"><path style="stroke:none" d=""/></g></g><g style="fill:#ffffff;fill-opacity:1;"><g transform="translate(80.116296, 170.048691)"><path style="stroke:none" d="M 15.59375 -19.109375 C 17.695312 -19.109375 19.5625 -18.710938 21.1875 -17.921875 C 22.8125 -17.128906 24.078125 -16.007812 24.984375 -14.5625 C 25.898438 -13.125 26.359375 -11.445312 26.359375 -9.53125 C 26.359375 -7.582031 25.882812 -5.863281 24.9375 -4.375 C 24 -2.882812 22.703125 -1.734375 21.046875 -0.921875 C 19.390625 -0.117188 17.53125 0.28125 15.46875 0.28125 C 11.238281 0.28125 8 -1.109375 5.75 -3.890625 C 3.5 -6.679688 2.375 -10.613281 2.375 -15.6875 C 2.375 -19.25 2.976562 -22.257812 4.1875 -24.71875 C 5.40625 -27.1875 7.109375 -29.050781 9.296875 -30.3125 C 11.492188 -31.570312 14.050781 -32.203125 16.96875 -32.203125 C 20.125 -32.203125 22.644531 -31.625 24.53125 -30.46875 L 23.21875 -27.828125 C 21.695312 -28.828125 19.628906 -29.328125 17.015625 -29.328125 C 13.484375 -29.328125 10.710938 -28.207031 8.703125 -25.96875 C 6.703125 -23.738281 5.703125 -20.492188 5.703125 -16.234375 C 5.703125 -15.472656 5.75 -14.609375 5.84375 -13.640625 C 6.632812 -15.367188 7.894531 -16.710938 9.625 -17.671875 C 11.351562 -18.628906 13.34375 -19.109375 15.59375 -19.109375 Z M 15.328125 -2.515625 C 17.640625 -2.515625 19.515625 -3.144531 20.953125 -4.40625 C 22.398438 -5.664062 23.125 -7.34375 23.125 -9.4375 C 23.125 -11.539062 22.398438 -13.210938 20.953125 -14.453125 C 19.515625 -15.703125 17.5625 -16.328125 15.09375 -16.328125 C 13.476562 -16.328125 12.054688 -16.019531 10.828125 -15.40625 C 9.597656 -14.800781 8.632812 -13.96875 7.9375 -12.90625 C 7.238281 -11.84375 6.890625 -10.65625 6.890625 -9.34375 C 6.890625 -8.132812 7.210938 -7.007812 7.859375 -5.96875 C 8.515625 -4.9375 9.476562 -4.101562 10.75 -3.46875 C 12.03125 -2.832031 13.554688 -2.515625 15.328125 -2.515625 Z M 15.328125 -2.515625 "/></g></g><g style="fill:#ffffff;fill-opacity:1;"><g transform="translate(107.616078, 170.048691)"><path style="stroke:none" d="M 19.796875 0 L 12.171875 -10.03125 L 4.515625 0 L 0.859375 0 L 10.359375 -12.3125 L 1.328125 -23.984375 L 4.96875 -23.984375 L 12.171875 -14.59375 L 19.390625 -23.984375 L 22.9375 -23.984375 L 13.90625 -12.3125 L 23.484375 0 Z M 19.796875 0 "/></g></g><g style="fill:#ffffff;fill-opacity:1;"><g transform="translate(131.695483, 170.048691)"><path style="stroke:none" d=""/></g></g><g style="fill:#ffffff;fill-opacity:1;"><g transform="translate(143.370302, 170.048691)"><path style="stroke:none" d="M 26.40625 -33.84375 L 26.40625 0 L 23.3125 0 L 23.3125 -4.75 C 22.332031 -3.132812 21.046875 -1.898438 19.453125 -1.046875 C 17.859375 -0.191406 16.054688 0.234375 14.046875 0.234375 C 11.796875 0.234375 9.757812 -0.28125 7.9375 -1.3125 C 6.113281 -2.351562 4.679688 -3.800781 3.640625 -5.65625 C 2.609375 -7.507812 2.09375 -9.625 2.09375 -12 C 2.09375 -14.363281 2.609375 -16.472656 3.640625 -18.328125 C 4.679688 -20.179688 6.113281 -21.617188 7.9375 -22.640625 C 9.757812 -23.660156 11.796875 -24.171875 14.046875 -24.171875 C 15.992188 -24.171875 17.75 -23.765625 19.3125 -22.953125 C 20.882812 -22.148438 22.171875 -20.972656 23.171875 -19.421875 L 23.171875 -33.84375 Z M 14.328125 -2.640625 C 15.992188 -2.640625 17.503906 -3.023438 18.859375 -3.796875 C 20.210938 -4.578125 21.273438 -5.679688 22.046875 -7.109375 C 22.828125 -8.546875 23.21875 -10.175781 23.21875 -12 C 23.21875 -13.820312 22.828125 -15.445312 22.046875 -16.875 C 21.273438 -18.300781 20.210938 -19.398438 18.859375 -20.171875 C 17.503906 -20.953125 15.992188 -21.34375 14.328125 -21.34375 C 12.617188 -21.34375 11.085938 -20.953125 9.734375 -20.171875 C 8.378906 -19.398438 7.3125 -18.300781 6.53125 -16.875 C 5.757812 -15.445312 5.375 -13.820312 5.375 -12 C 5.375 -10.175781 5.757812 -8.546875 6.53125 -7.109375 C 7.3125 -5.679688 8.378906 -4.578125 9.734375 -3.796875 C 11.085938 -3.023438 12.617188 -2.640625 14.328125 -2.640625 Z M 14.328125 -2.640625 "/></g></g><g style="fill:#ffffff;fill-opacity:1;"><g transform="translate(174.016831, 170.048691)"><path style="stroke:none" d="M 25.40625 -10.984375 L 5.34375 -10.984375 C 5.519531 -8.492188 6.472656 -6.476562 8.203125 -4.9375 C 9.941406 -3.40625 12.132812 -2.640625 14.78125 -2.640625 C 16.269531 -2.640625 17.632812 -2.90625 18.875 -3.4375 C 20.125 -3.96875 21.207031 -4.753906 22.125 -5.796875 L 23.9375 -3.6875 C 22.875 -2.414062 21.546875 -1.441406 19.953125 -0.765625 C 18.359375 -0.0976562 16.601562 0.234375 14.6875 0.234375 C 12.21875 0.234375 10.035156 -0.289062 8.140625 -1.34375 C 6.242188 -2.394531 4.757812 -3.847656 3.6875 -5.703125 C 2.625 -7.554688 2.09375 -9.65625 2.09375 -12 C 2.09375 -14.332031 2.601562 -16.425781 3.625 -18.28125 C 4.644531 -20.144531 6.039062 -21.59375 7.8125 -22.625 C 9.59375 -23.65625 11.59375 -24.171875 13.8125 -24.171875 C 16.039062 -24.171875 18.035156 -23.65625 19.796875 -22.625 C 21.554688 -21.59375 22.9375 -20.15625 23.9375 -18.3125 C 24.945312 -16.46875 25.453125 -14.363281 25.453125 -12 Z M 13.8125 -21.390625 C 11.507812 -21.390625 9.570312 -20.648438 8 -19.171875 C 6.4375 -17.703125 5.550781 -15.78125 5.34375 -13.40625 L 22.34375 -13.40625 C 22.132812 -15.78125 21.242188 -17.703125 19.671875 -19.171875 C 18.109375 -20.648438 16.15625 -21.390625 13.8125 -21.390625 Z M 13.8125 -21.390625 "/></g></g><g style="fill:#d0a944;fill-opacity:1;"><g transform="translate(201.295164, 170.048691)"><path style="stroke:none" d=""/></g></g><g style="fill:#d0a944;fill-opacity:1;"><g transform="translate(212.969983, 170.048691)"><path style="stroke:none" d="M 27 0 L 19.703125 -10.265625 C 18.878906 -10.171875 18.03125 -10.125 17.15625 -10.125 L 8.578125 -10.125 L 8.578125 0 L 5.203125 0 L 5.203125 -31.921875 L 17.15625 -31.921875 C 21.226562 -31.921875 24.414062 -30.945312 26.71875 -29 C 29.03125 -27.0625 30.1875 -24.390625 30.1875 -20.984375 C 30.1875 -18.484375 29.554688 -16.375 28.296875 -14.65625 C 27.035156 -12.945312 25.234375 -11.710938 22.890625 -10.953125 L 30.6875 0 Z M 17.0625 -13 C 20.21875 -13 22.628906 -13.695312 24.296875 -15.09375 C 25.972656 -16.488281 26.8125 -18.453125 26.8125 -20.984375 C 26.8125 -23.566406 25.972656 -25.546875 24.296875 -26.921875 C 22.628906 -28.304688 20.21875 -29 17.0625 -29 L 8.578125 -29 L 8.578125 -13 Z M 17.0625 -13 "/></g></g><g style="fill:#d0a944;fill-opacity:1;"><g transform="translate(245.668741, 170.048691)"><path style="stroke:none" d="M 25.90625 -8.4375 C 25.90625 -6.09375 25.007812 -4.109375 23.21875 -2.484375 C 21.425781 -0.859375 18.796875 0.046875 15.328125 0.234375 L 15.328125 5.46875 L 13.046875 5.46875 L 13.046875 0.28125 C 10.828125 0.15625 8.734375 -0.273438 6.765625 -1.015625 C 4.804688 -1.765625 3.265625 -2.71875 2.140625 -3.875 L 3.46875 -6.46875 C 4.53125 -5.4375 5.921875 -4.570312 7.640625 -3.875 C 9.359375 -3.175781 11.160156 -2.765625 13.046875 -2.640625 L 13.046875 -14.640625 C 10.941406 -15.160156 9.191406 -15.710938 7.796875 -16.296875 C 6.398438 -16.890625 5.238281 -17.753906 4.3125 -18.890625 C 3.382812 -20.035156 2.921875 -21.550781 2.921875 -23.4375 C 2.921875 -25.78125 3.769531 -27.75 5.46875 -29.34375 C 7.175781 -30.945312 9.703125 -31.882812 13.046875 -32.15625 L 13.046875 -37.40625 L 15.328125 -37.40625 L 15.328125 -32.203125 C 17.054688 -32.140625 18.734375 -31.859375 20.359375 -31.359375 C 21.992188 -30.859375 23.398438 -30.195312 24.578125 -29.375 L 23.4375 -26.6875 C 22.195312 -27.476562 20.875 -28.097656 19.46875 -28.546875 C 18.070312 -29.003906 16.691406 -29.265625 15.328125 -29.328125 L 15.328125 -17.234375 C 17.578125 -16.691406 19.414062 -16.140625 20.84375 -15.578125 C 22.269531 -15.015625 23.46875 -14.15625 24.4375 -13 C 25.414062 -11.84375 25.90625 -10.320312 25.90625 -8.4375 Z M 6.25 -23.53125 C 6.25 -21.945312 6.832031 -20.742188 8 -19.921875 C 9.175781 -19.109375 10.859375 -18.410156 13.046875 -17.828125 L 13.046875 -29.234375 C 10.796875 -29.054688 9.097656 -28.441406 7.953125 -27.390625 C 6.816406 -26.335938 6.25 -25.050781 6.25 -23.53125 Z M 15.328125 -2.640625 C 17.722656 -2.828125 19.53125 -3.421875 20.75 -4.421875 C 21.96875 -5.421875 22.578125 -6.695312 22.578125 -8.25 C 22.578125 -9.894531 21.953125 -11.128906 20.703125 -11.953125 C 19.460938 -12.773438 17.671875 -13.472656 15.328125 -14.046875 Z M 15.328125 -2.640625 "/></g></g><g style="fill:#d0a944;fill-opacity:1;"><g transform="translate(273.442153, 170.048691)"><path style="stroke:none" d="M 11.21875 -31.921875 L 11.21875 0 L 7.9375 0 L 7.9375 -29 L 0.40625 -29 L 0.40625 -31.921875 Z M 11.21875 -31.921875 "/></g></g><g style="fill:#d0a944;fill-opacity:1;"><g transform="translate(289.631879, 170.048691)"><path style="stroke:none" d="M 24.90625 -31.921875 L 24.90625 -29.59375 L 11.546875 0 L 7.984375 0 L 21.109375 -29 L 4.703125 -29 L 4.703125 -23.03125 L 1.453125 -23.03125 L 1.453125 -31.921875 Z M 24.90625 -31.921875 "/></g></g><g style="fill:#d0a944;fill-opacity:1;"><g transform="translate(316.219557, 170.048691)"><path style="stroke:none" d="M 4.875 -4.75 C 5.570312 -4.75 6.148438 -4.507812 6.609375 -4.03125 C 7.066406 -3.5625 7.296875 -2.976562 7.296875 -2.28125 C 7.296875 -1.914062 7.242188 -1.519531 7.140625 -1.09375 C 7.035156 -0.664062 6.875 -0.179688 6.65625 0.359375 L 4.75 6.65625 L 2.546875 6.65625 L 4.109375 0.046875 C 3.617188 -0.109375 3.222656 -0.390625 2.921875 -0.796875 C 2.617188 -1.203125 2.46875 -1.695312 2.46875 -2.28125 C 2.46875 -2.976562 2.691406 -3.5625 3.140625 -4.03125 C 3.597656 -4.507812 4.175781 -4.75 4.875 -4.75 Z M 4.875 -4.75 "/></g></g><g style="fill:#d0a944;fill-opacity:1;"><g transform="translate(325.614124, 170.048691)"><path style="stroke:none" d="M 11.21875 -31.921875 L 11.21875 0 L 7.9375 0 L 7.9375 -29 L 0.40625 -29 L 0.40625 -31.921875 Z M 11.21875 -31.921875 "/></g></g><g style="fill:#d0a944;fill-opacity:1;"><g transform="translate(341.80385, 170.048691)"><path style="stroke:none" d="M 20.65625 -16.734375 C 22.664062 -16.066406 24.207031 -15.0625 25.28125 -13.71875 C 26.363281 -12.382812 26.90625 -10.773438 26.90625 -8.890625 C 26.90625 -7.035156 26.40625 -5.414062 25.40625 -4.03125 C 24.40625 -2.65625 22.96875 -1.59375 21.09375 -0.84375 C 19.226562 -0.09375 17.03125 0.28125 14.5 0.28125 C 10.664062 0.28125 7.65625 -0.539062 5.46875 -2.1875 C 3.28125 -3.832031 2.1875 -6.066406 2.1875 -8.890625 C 2.1875 -10.804688 2.710938 -12.425781 3.765625 -13.75 C 4.816406 -15.070312 6.34375 -16.066406 8.34375 -16.734375 C 6.707031 -17.378906 5.460938 -18.300781 4.609375 -19.5 C 3.753906 -20.695312 3.328125 -22.117188 3.328125 -23.765625 C 3.328125 -26.347656 4.335938 -28.398438 6.359375 -29.921875 C 8.378906 -31.441406 11.09375 -32.203125 14.5 -32.203125 C 16.75 -32.203125 18.71875 -31.859375 20.40625 -31.171875 C 22.09375 -30.484375 23.40625 -29.5 24.34375 -28.21875 C 25.289062 -26.945312 25.765625 -25.460938 25.765625 -23.765625 C 25.765625 -22.117188 25.320312 -20.695312 24.4375 -19.5 C 23.5625 -18.300781 22.300781 -17.378906 20.65625 -16.734375 Z M 6.609375 -23.671875 C 6.609375 -21.910156 7.304688 -20.507812 8.703125 -19.46875 C 10.109375 -18.4375 12.039062 -17.921875 14.5 -17.921875 C 16.96875 -17.921875 18.90625 -18.4375 20.3125 -19.46875 C 21.726562 -20.507812 22.4375 -21.894531 22.4375 -23.625 C 22.4375 -25.414062 21.710938 -26.828125 20.265625 -27.859375 C 18.828125 -28.898438 16.90625 -29.421875 14.5 -29.421875 C 12.070312 -29.421875 10.148438 -28.898438 8.734375 -27.859375 C 7.316406 -26.828125 6.609375 -25.429688 6.609375 -23.671875 Z M 14.5 -2.515625 C 17.332031 -2.515625 19.546875 -3.085938 21.140625 -4.234375 C 22.734375 -5.390625 23.53125 -6.957031 23.53125 -8.9375 C 23.53125 -10.914062 22.734375 -12.472656 21.140625 -13.609375 C 19.546875 -14.753906 17.332031 -15.328125 14.5 -15.328125 C 11.707031 -15.328125 9.507812 -14.753906 7.90625 -13.609375 C 6.3125 -12.472656 5.515625 -10.914062 5.515625 -8.9375 C 5.515625 -6.925781 6.304688 -5.351562 7.890625 -4.21875 C 9.472656 -3.082031 11.675781 -2.515625 14.5 -2.515625 Z M 14.5 -2.515625 "/></g></g></g></svg>