<svg xmlns="http://www.w3.org/2000/svg" xmlns:xlink="http://www.w3.org/1999/xlink" width="700" zoomAndPan="magnify" viewBox="0 0 525 525.000007" height="700" preserveAspectRatio="xMidYMid meet" version="1.2"><defs/><g id="7acbd82871"><g style="fill:#ffffff;fill-opacity:1;"><g transform="translate(169.068055, 197.537753)"><path style="stroke:none" d="M 60.859375 -13.15625 L 50.65625 -13.15625 L 50.65625 0 L 36.515625 0 L 36.515625 -13.15625 L 2.78125 -13.15625 L 2.78125 -22.90625 L 32.3125 -62.65625 L 47.53125 -62.65625 L 20.140625 -24.96875 L 36.96875 -24.96875 L 36.96875 -36.6875 L 50.65625 -36.6875 L 50.65625 -24.96875 L 60.859375 -24.96875 Z M 60.859375 -13.15625 "/></g></g><g style="fill:#ffffff;fill-opacity:1;"><g transform="translate(230.731503, 197.537753)"><path style="stroke:none" d="M 32.75 -37.140625 C 38.238281 -36.242188 42.445312 -34.195312 45.375 -31 C 48.300781 -27.8125 49.765625 -23.863281 49.765625 -19.15625 C 49.765625 -15.507812 48.804688 -12.148438 46.890625 -9.078125 C 44.984375 -6.003906 42.078125 -3.539062 38.171875 -1.6875 C 34.265625 0.15625 29.476562 1.078125 23.8125 1.078125 C 19.394531 1.078125 15.050781 0.492188 10.78125 -0.671875 C 6.519531 -1.835938 2.894531 -3.492188 -0.09375 -5.640625 L 5.546875 -16.734375 C 7.929688 -14.941406 10.691406 -13.550781 13.828125 -12.5625 C 16.960938 -11.582031 20.171875 -11.09375 23.453125 -11.09375 C 27.085938 -11.09375 29.945312 -11.789062 32.03125 -13.1875 C 34.125 -14.59375 35.171875 -16.582031 35.171875 -19.15625 C 35.171875 -24.28125 31.265625 -26.84375 23.453125 -26.84375 L 16.828125 -26.84375 L 16.828125 -36.421875 L 29.71875 -51.015625 L 3.046875 -51.015625 L 3.046875 -62.65625 L 46.890625 -62.65625 L 46.890625 -53.25 Z M 32.75 -37.140625 "/></g></g><g style="fill:#ffffff;fill-opacity:1;"><g transform="translate(283.713748, 197.537753)"><path style="stroke:none" d="M 52.53125 -62.65625 L 52.53125 -53.25 L 29.265625 0 L 13.515625 0 L 35.984375 -50.84375 L 15.21875 -50.84375 L 15.21875 -40.640625 L 2.328125 -40.640625 L 2.328125 -62.65625 Z M 52.53125 -62.65625 "/></g></g><g style="fill:#ffffff;fill-opacity:1;"><g transform="translate(121.877358, 191.31345)"><path style="stroke:none" d="M 15.1875 0 L 11.3125 -5.59375 L 7.03125 -5.59375 L 7.03125 0 L 2.375 0 L 2.375 -20.09375 L 11.078125 -20.09375 C 12.859375 -20.09375 14.40625 -19.796875 15.71875 -19.203125 C 17.03125 -18.609375 18.039062 -17.765625 18.75 -16.671875 C 19.457031 -15.585938 19.8125 -14.296875 19.8125 -12.796875 C 19.8125 -11.304688 19.453125 -10.019531 18.734375 -8.9375 C 18.015625 -7.851562 16.992188 -7.023438 15.671875 -6.453125 L 20.171875 0 Z M 15.09375 -12.796875 C 15.09375 -13.929688 14.726562 -14.796875 14 -15.390625 C 13.28125 -15.992188 12.222656 -16.296875 10.828125 -16.296875 L 7.03125 -16.296875 L 7.03125 -9.296875 L 10.828125 -9.296875 C 12.222656 -9.296875 13.28125 -9.601562 14 -10.21875 C 14.726562 -10.832031 15.09375 -11.691406 15.09375 -12.796875 Z M 15.09375 -12.796875 "/></g></g><g style="fill:#ffffff;fill-opacity:1;"><g transform="translate(142.974178, 191.31345)"><path style="stroke:none" d="M 17.515625 -5.890625 C 17.515625 -4.316406 16.9375 -2.96875 15.78125 -1.84375 C 14.632812 -0.726562 12.984375 -0.0351562 10.828125 0.234375 L 10.828125 3.4375 L 7.953125 3.4375 L 7.953125 0.3125 C 6.535156 0.238281 5.1875 -0.00390625 3.90625 -0.421875 C 2.625 -0.847656 1.585938 -1.367188 0.796875 -1.984375 L 2.375 -5.484375 C 3.101562 -4.941406 3.957031 -4.488281 4.9375 -4.125 C 5.914062 -3.769531 6.921875 -3.539062 7.953125 -3.4375 L 7.953125 -8.234375 C 6.585938 -8.554688 5.4375 -8.921875 4.5 -9.328125 C 3.5625 -9.734375 2.773438 -10.320312 2.140625 -11.09375 C 1.515625 -11.863281 1.203125 -12.890625 1.203125 -14.171875 C 1.203125 -15.765625 1.78125 -17.128906 2.9375 -18.265625 C 4.09375 -19.410156 5.765625 -20.101562 7.953125 -20.34375 L 7.953125 -23.53125 L 10.828125 -23.53125 L 10.828125 -20.40625 C 13.179688 -20.21875 15.117188 -19.632812 16.640625 -18.65625 L 15.21875 -15.125 C 13.78125 -15.945312 12.316406 -16.445312 10.828125 -16.625 L 10.828125 -11.734375 C 12.160156 -11.429688 13.289062 -11.082031 14.21875 -10.6875 C 15.144531 -10.300781 15.925781 -9.71875 16.5625 -8.9375 C 17.195312 -8.164062 17.515625 -7.148438 17.515625 -5.890625 Z M 5.828125 -14.40625 C 5.828125 -13.925781 6.007812 -13.53125 6.375 -13.21875 C 6.738281 -12.914062 7.265625 -12.660156 7.953125 -12.453125 L 7.953125 -16.53125 C 7.222656 -16.363281 6.6875 -16.09375 6.34375 -15.71875 C 6 -15.34375 5.828125 -14.90625 5.828125 -14.40625 Z M 10.828125 -3.5625 C 11.515625 -3.707031 12.03125 -3.953125 12.375 -4.296875 C 12.71875 -4.648438 12.890625 -5.066406 12.890625 -5.546875 C 12.890625 -6.015625 12.710938 -6.398438 12.359375 -6.703125 C 12.003906 -7.015625 11.492188 -7.285156 10.828125 -7.515625 Z M 10.828125 -3.5625 "/></g></g><g style="fill:#ffffff;fill-opacity:1;"><g transform="translate(126.904662, 165.865825)"><path style="stroke:none" d="M 13.75 -16.46875 L 13.75 0 L 10.453125 0 L 10.453125 -1.375 C 9.585938 -0.34375 8.34375 0.171875 6.71875 0.171875 C 5.59375 0.171875 4.578125 -0.078125 3.671875 -0.578125 C 2.765625 -1.078125 2.050781 -1.789062 1.53125 -2.71875 C 1.007812 -3.65625 0.75 -4.738281 0.75 -5.96875 C 0.75 -7.195312 1.007812 -8.273438 1.53125 -9.203125 C 2.050781 -10.140625 2.765625 -10.859375 3.671875 -11.359375 C 4.578125 -11.859375 5.59375 -12.109375 6.71875 -12.109375 C 8.25 -12.109375 9.441406 -11.628906 10.296875 -10.671875 L 10.296875 -16.46875 Z M 7.328125 -2.65625 C 8.191406 -2.65625 8.910156 -2.953125 9.484375 -3.546875 C 10.066406 -4.148438 10.359375 -4.957031 10.359375 -5.96875 C 10.359375 -6.976562 10.066406 -7.78125 9.484375 -8.375 C 8.910156 -8.976562 8.191406 -9.28125 7.328125 -9.28125 C 6.429688 -9.28125 5.695312 -8.976562 5.125 -8.375 C 4.550781 -7.78125 4.265625 -6.976562 4.265625 -5.96875 C 4.265625 -4.957031 4.550781 -4.148438 5.125 -3.546875 C 5.695312 -2.953125 6.429688 -2.65625 7.328125 -2.65625 Z M 7.328125 -2.65625 "/></g></g><g style="fill:#ffffff;fill-opacity:1;"><g transform="translate(142.254258, 165.865825)"><path style="stroke:none" d="M 13.296875 -5.921875 C 13.296875 -5.878906 13.269531 -5.566406 13.21875 -4.984375 L 4.1875 -4.984375 C 4.351562 -4.242188 4.738281 -3.660156 5.34375 -3.234375 C 5.945312 -2.804688 6.703125 -2.59375 7.609375 -2.59375 C 8.234375 -2.59375 8.785156 -2.6875 9.265625 -2.875 C 9.742188 -3.0625 10.191406 -3.351562 10.609375 -3.75 L 12.453125 -1.75 C 11.328125 -0.46875 9.679688 0.171875 7.515625 0.171875 C 6.171875 0.171875 4.976562 -0.0859375 3.9375 -0.609375 C 2.90625 -1.128906 2.109375 -1.851562 1.546875 -2.78125 C 0.984375 -3.71875 0.703125 -4.78125 0.703125 -5.96875 C 0.703125 -7.132812 0.976562 -8.1875 1.53125 -9.125 C 2.09375 -10.0625 2.859375 -10.789062 3.828125 -11.3125 C 4.796875 -11.84375 5.878906 -12.109375 7.078125 -12.109375 C 8.242188 -12.109375 9.300781 -11.859375 10.25 -11.359375 C 11.195312 -10.859375 11.941406 -10.132812 12.484375 -9.1875 C 13.023438 -8.25 13.296875 -7.160156 13.296875 -5.921875 Z M 7.09375 -9.5 C 6.3125 -9.5 5.65625 -9.273438 5.125 -8.828125 C 4.59375 -8.390625 4.269531 -7.785156 4.15625 -7.015625 L 10.03125 -7.015625 C 9.90625 -7.765625 9.578125 -8.363281 9.046875 -8.8125 C 8.515625 -9.269531 7.863281 -9.5 7.09375 -9.5 Z M 7.09375 -9.5 "/></g></g><g style="fill:#ffffff;fill-opacity:1;"><g transform="translate(331.703853, 170.568893)"><path style="stroke:none" d="M 4.671875 -6.578125 C 5.660156 -6.578125 6.472656 -6.265625 7.109375 -5.640625 C 7.742188 -5.015625 8.0625 -4.195312 8.0625 -3.1875 C 8.0625 -2.707031 8 -2.234375 7.875 -1.765625 C 7.757812 -1.296875 7.503906 -0.585938 7.109375 0.359375 L 5.09375 5.4375 L 1.59375 5.4375 L 3.140625 -0.171875 C 2.554688 -0.410156 2.09375 -0.796875 1.75 -1.328125 C 1.40625 -1.859375 1.234375 -2.476562 1.234375 -3.1875 C 1.234375 -4.195312 1.554688 -5.015625 2.203125 -5.640625 C 2.859375 -6.265625 3.679688 -6.578125 4.671875 -6.578125 Z M 4.671875 -6.578125 "/></g></g><g style="fill:#ffffff;fill-opacity:1;"><g transform="translate(338.737035, 170.568893)"><path style="stroke:none" d="M 11.984375 0.421875 C 9.929688 0.421875 8.101562 -0.0820312 6.5 -1.09375 C 4.894531 -2.101562 3.640625 -3.566406 2.734375 -5.484375 C 1.828125 -7.410156 1.375 -9.707031 1.375 -12.375 C 1.375 -15.03125 1.828125 -17.316406 2.734375 -19.234375 C 3.640625 -21.160156 4.894531 -22.628906 6.5 -23.640625 C 8.101562 -24.660156 9.929688 -25.171875 11.984375 -25.171875 C 14.035156 -25.171875 15.859375 -24.660156 17.453125 -23.640625 C 19.054688 -22.628906 20.3125 -21.160156 21.21875 -19.234375 C 22.125 -17.316406 22.578125 -15.03125 22.578125 -12.375 C 22.578125 -9.707031 22.125 -7.410156 21.21875 -5.484375 C 20.3125 -3.566406 19.054688 -2.101562 17.453125 -1.09375 C 15.859375 -0.0820312 14.035156 0.421875 11.984375 0.421875 Z M 11.984375 -4.421875 C 13.492188 -4.421875 14.675781 -5.066406 15.53125 -6.359375 C 16.394531 -7.660156 16.828125 -9.664062 16.828125 -12.375 C 16.828125 -15.082031 16.394531 -17.082031 15.53125 -18.375 C 14.675781 -19.675781 13.492188 -20.328125 11.984375 -20.328125 C 10.492188 -20.328125 9.316406 -19.675781 8.453125 -18.375 C 7.597656 -17.082031 7.171875 -15.082031 7.171875 -12.375 C 7.171875 -9.664062 7.597656 -7.660156 8.453125 -6.359375 C 9.316406 -5.066406 10.492188 -4.421875 11.984375 -4.421875 Z M 11.984375 -4.421875 "/></g></g><g style="fill:#ffffff;fill-opacity:1;"><g transform="translate(360.508758, 170.568893)"><path style="stroke:none" d="M 11.984375 0.421875 C 9.929688 0.421875 8.101562 -0.0820312 6.5 -1.09375 C 4.894531 -2.101562 3.640625 -3.566406 2.734375 -5.484375 C 1.828125 -7.410156 1.375 -9.707031 1.375 -12.375 C 1.375 -15.03125 1.828125 -17.316406 2.734375 -19.234375 C 3.640625 -21.160156 4.894531 -22.628906 6.5 -23.640625 C 8.101562 -24.660156 9.929688 -25.171875 11.984375 -25.171875 C 14.035156 -25.171875 15.859375 -24.660156 17.453125 -23.640625 C 19.054688 -22.628906 20.3125 -21.160156 21.21875 -19.234375 C 22.125 -17.316406 22.578125 -15.03125 22.578125 -12.375 C 22.578125 -9.707031 22.125 -7.410156 21.21875 -5.484375 C 20.3125 -3.566406 19.054688 -2.101562 17.453125 -1.09375 C 15.859375 -0.0820312 14.035156 0.421875 11.984375 0.421875 Z M 11.984375 -4.421875 C 13.492188 -4.421875 14.675781 -5.066406 15.53125 -6.359375 C 16.394531 -7.660156 16.828125 -9.664062 16.828125 -12.375 C 16.828125 -15.082031 16.394531 -17.082031 15.53125 -18.375 C 14.675781 -19.675781 13.492188 -20.328125 11.984375 -20.328125 C 10.492188 -20.328125 9.316406 -19.675781 8.453125 -18.375 C 7.597656 -17.082031 7.171875 -15.082031 7.171875 -12.375 C 7.171875 -9.664062 7.597656 -7.660156 8.453125 -6.359375 C 9.316406 -5.066406 10.492188 -4.421875 11.984375 -4.421875 Z M 11.984375 -4.421875 "/></g></g><path style="fill:none;stroke-width:14;stroke-linecap:butt;stroke-linejoin:miter;stroke:#d0a944;stroke-opacity:1;stroke-miterlimit:4;" d="M -0.00176783 6.997149 L 404.081549 7.000007 " transform="matrix(0.715565,-0.219348,0.219348,0.715565,101.196923,209.895042)"/><g style="fill:#d0a944;fill-opacity:1;"><g transform="translate(83.310977, 373.555351)"><path style="stroke:none" d="M 58.921875 -66.796875 C 68.785156 -65.191406 76.347656 -61.515625 81.609375 -55.765625 C 86.867188 -50.023438 89.5 -42.921875 89.5 -34.453125 C 89.5 -27.898438 87.78125 -21.859375 84.34375 -16.328125 C 80.914062 -10.804688 75.6875 -6.378906 68.65625 -3.046875 C 61.625 0.273438 53.007812 1.9375 42.8125 1.9375 C 34.875 1.9375 27.066406 0.890625 19.390625 -1.203125 C 11.722656 -3.296875 5.207031 -6.273438 -0.15625 -10.140625 L 9.984375 -30.09375 C 14.273438 -26.875 19.238281 -24.378906 24.875 -22.609375 C 30.507812 -20.835938 36.273438 -19.953125 42.171875 -19.953125 C 48.722656 -19.953125 53.875 -21.210938 57.625 -23.734375 C 61.382812 -26.265625 63.265625 -29.835938 63.265625 -34.453125 C 63.265625 -43.679688 56.234375 -48.296875 42.171875 -48.296875 L 30.265625 -48.296875 L 30.265625 -65.515625 L 53.4375 -91.75 L 5.46875 -91.75 L 5.46875 -112.671875 L 84.34375 -112.671875 L 84.34375 -95.78125 Z M 58.921875 -66.796875 "/></g></g><g style="fill:#d0a944;fill-opacity:1;"><g transform="translate(178.584845, 373.555351)"><path style="stroke:none" d="M 109.453125 -23.65625 L 91.109375 -23.65625 L 91.109375 0 L 65.671875 0 L 65.671875 -23.65625 L 4.984375 -23.65625 L 4.984375 -41.203125 L 58.109375 -112.671875 L 85.46875 -112.671875 L 36.21875 -44.90625 L 66.484375 -44.90625 L 66.484375 -66 L 91.109375 -66 L 91.109375 -44.90625 L 109.453125 -44.90625 Z M 109.453125 -23.65625 "/></g></g><g style="fill:#d0a944;fill-opacity:1;"><g transform="translate(289.469458, 373.555351)"><path style="stroke:none" d="M 45.875 -114.609375 C 61.644531 -114.609375 73.984375 -109.804688 82.890625 -100.203125 C 91.804688 -90.597656 96.265625 -76.78125 96.265625 -58.75 C 96.265625 -45.976562 93.875 -35.03125 89.09375 -25.90625 C 84.320312 -16.789062 77.585938 -9.867188 68.890625 -5.140625 C 60.203125 -0.421875 50.171875 1.9375 38.796875 1.9375 C 32.785156 1.9375 27.039062 1.265625 21.5625 -0.078125 C 16.09375 -1.421875 11.425781 -3.328125 7.5625 -5.796875 L 17.21875 -24.953125 C 22.695312 -21.191406 29.726562 -19.3125 38.3125 -19.3125 C 47.863281 -19.3125 55.425781 -22.128906 61 -27.765625 C 66.582031 -33.398438 69.585938 -41.53125 70.015625 -52.15625 C 63.253906 -45.394531 53.921875 -42.015625 42.015625 -42.015625 C 34.828125 -42.015625 28.28125 -43.460938 22.375 -46.359375 C 16.46875 -49.253906 11.796875 -53.359375 8.359375 -58.671875 C 4.929688 -63.984375 3.21875 -70.128906 3.21875 -77.109375 C 3.21875 -84.617188 5.09375 -91.21875 8.84375 -96.90625 C 12.601562 -102.59375 17.726562 -106.960938 24.21875 -110.015625 C 30.71875 -113.078125 37.9375 -114.609375 45.875 -114.609375 Z M 47.8125 -61.484375 C 53.5 -61.484375 58.140625 -63.066406 61.734375 -66.234375 C 65.328125 -69.398438 67.125 -73.453125 67.125 -78.390625 C 67.125 -83.328125 65.378906 -87.347656 61.890625 -90.453125 C 58.398438 -93.566406 53.597656 -95.125 47.484375 -95.125 C 41.898438 -95.125 37.363281 -93.625 33.875 -90.625 C 30.394531 -87.625 28.65625 -83.546875 28.65625 -78.390625 C 28.65625 -73.242188 30.394531 -69.140625 33.875 -66.078125 C 37.363281 -63.015625 42.007812 -61.484375 47.8125 -61.484375 Z M 47.8125 -61.484375 "/></g></g><g style="fill:#d0a944;fill-opacity:1;"><g transform="translate(1.710346, 357.547595)"><path style="stroke:none" d="M 26.484375 0 L 19.328125 -10.0625 C 18.523438 -9.976562 17.691406 -9.9375 16.828125 -9.9375 L 8.40625 -9.9375 L 8.40625 0 L 5.09375 0 L 5.09375 -31.328125 L 16.828125 -31.328125 C 20.828125 -31.328125 23.957031 -30.367188 26.21875 -28.453125 C 28.488281 -26.546875 29.625 -23.921875 29.625 -20.578125 C 29.625 -18.140625 29.003906 -16.078125 27.765625 -14.390625 C 26.523438 -12.703125 24.757812 -11.484375 22.46875 -10.734375 L 30.109375 0 Z M 16.734375 -12.75 C 19.835938 -12.75 22.207031 -13.4375 23.84375 -14.8125 C 25.488281 -16.1875 26.3125 -18.109375 26.3125 -20.578125 C 26.3125 -23.117188 25.488281 -25.066406 23.84375 -26.421875 C 22.207031 -27.785156 19.835938 -28.46875 16.734375 -28.46875 L 8.40625 -28.46875 L 8.40625 -12.75 Z M 16.734375 -12.75 "/></g></g><g style="fill:#d0a944;fill-opacity:1;"><g transform="translate(34.066826, 357.547595)"><path style="stroke:none" d="M 25.421875 -8.28125 C 25.421875 -5.976562 24.539062 -4.03125 22.78125 -2.4375 C 21.019531 -0.84375 18.4375 0.0390625 15.03125 0.21875 L 15.03125 5.375 L 12.796875 5.375 L 12.796875 0.265625 C 10.617188 0.148438 8.566406 -0.269531 6.640625 -1 C 4.722656 -1.738281 3.210938 -2.671875 2.109375 -3.796875 L 3.40625 -6.359375 C 4.445312 -5.335938 5.8125 -4.484375 7.5 -3.796875 C 9.1875 -3.117188 10.953125 -2.71875 12.796875 -2.59375 L 12.796875 -14.359375 C 10.734375 -14.867188 9.015625 -15.414062 7.640625 -16 C 6.273438 -16.582031 5.132812 -17.429688 4.21875 -18.546875 C 3.3125 -19.671875 2.859375 -21.15625 2.859375 -23 C 2.859375 -25.300781 3.691406 -27.234375 5.359375 -28.796875 C 7.035156 -30.359375 9.515625 -31.273438 12.796875 -31.546875 L 12.796875 -36.6875 L 15.03125 -36.6875 L 15.03125 -31.59375 C 16.738281 -31.53125 18.390625 -31.253906 19.984375 -30.765625 C 21.578125 -30.273438 22.957031 -29.625 24.125 -28.8125 L 23 -26.171875 C 21.78125 -26.953125 20.484375 -27.566406 19.109375 -28.015625 C 17.734375 -28.460938 16.375 -28.71875 15.03125 -28.78125 L 15.03125 -16.921875 C 17.238281 -16.378906 19.039062 -15.832031 20.4375 -15.28125 C 21.84375 -14.726562 23.023438 -13.882812 23.984375 -12.75 C 24.941406 -11.613281 25.421875 -10.125 25.421875 -8.28125 Z M 6.125 -23.09375 C 6.125 -21.539062 6.695312 -20.359375 7.84375 -19.546875 C 9 -18.742188 10.648438 -18.0625 12.796875 -17.5 L 12.796875 -28.6875 C 10.585938 -28.507812 8.921875 -27.90625 7.796875 -26.875 C 6.679688 -25.84375 6.125 -24.582031 6.125 -23.09375 Z M 15.03125 -2.59375 C 17.394531 -2.769531 19.171875 -3.347656 20.359375 -4.328125 C 21.554688 -5.316406 22.15625 -6.570312 22.15625 -8.09375 C 22.15625 -9.707031 21.539062 -10.914062 20.3125 -11.71875 C 19.09375 -12.53125 17.332031 -13.21875 15.03125 -13.78125 Z M 15.03125 -2.59375 "/></g></g><g style="fill:#ffffff;fill-opacity:1;"><g transform="translate(0.499046, 309.125222)"><path style="stroke:none" d="M 14.765625 -21.15625 C 16.734375 -21.15625 18.515625 -20.707031 20.109375 -19.8125 C 21.703125 -18.925781 22.953125 -17.671875 23.859375 -16.046875 C 24.765625 -14.421875 25.21875 -12.570312 25.21875 -10.5 C 25.21875 -8.394531 24.765625 -6.53125 23.859375 -4.90625 C 22.953125 -3.28125 21.707031 -2.019531 20.125 -1.125 C 18.550781 -0.238281 16.765625 0.203125 14.765625 0.203125 C 13.066406 0.203125 11.53125 -0.148438 10.15625 -0.859375 C 8.78125 -1.566406 7.65625 -2.597656 6.78125 -3.953125 L 6.78125 7.734375 L 3.953125 7.734375 L 3.953125 -20.984375 L 6.671875 -20.984375 L 6.671875 -16.84375 C 7.515625 -18.226562 8.632812 -19.289062 10.03125 -20.03125 C 11.425781 -20.78125 13.003906 -21.15625 14.765625 -21.15625 Z M 14.5625 -2.3125 C 16.03125 -2.3125 17.363281 -2.648438 18.5625 -3.328125 C 19.757812 -4.003906 20.695312 -4.96875 21.375 -6.21875 C 22.050781 -7.46875 22.390625 -8.894531 22.390625 -10.5 C 22.390625 -12.09375 22.050781 -13.503906 21.375 -14.734375 C 20.695312 -15.972656 19.757812 -16.9375 18.5625 -17.625 C 17.363281 -18.320312 16.03125 -18.671875 14.5625 -18.671875 C 13.070312 -18.671875 11.734375 -18.320312 10.546875 -17.625 C 9.367188 -16.9375 8.441406 -15.972656 7.765625 -14.734375 C 7.085938 -13.503906 6.75 -12.09375 6.75 -10.5 C 6.75 -8.894531 7.085938 -7.46875 7.765625 -6.21875 C 8.441406 -4.96875 9.367188 -4.003906 10.546875 -3.328125 C 11.734375 -2.648438 13.070312 -2.3125 14.5625 -2.3125 Z M 14.5625 -2.3125 "/></g></g><g style="fill:#ffffff;fill-opacity:1;"><g transform="translate(27.548782, 309.125222)"><path style="stroke:none" d="M 12.53125 0.203125 C 10.507812 0.203125 8.6875 -0.253906 7.0625 -1.171875 C 5.4375 -2.085938 4.15625 -3.359375 3.21875 -4.984375 C 2.289062 -6.609375 1.828125 -8.445312 1.828125 -10.5 C 1.828125 -12.539062 2.289062 -14.375 3.21875 -16 C 4.15625 -17.625 5.4375 -18.890625 7.0625 -19.796875 C 8.6875 -20.703125 10.507812 -21.15625 12.53125 -21.15625 C 14.550781 -21.15625 16.375 -20.703125 18 -19.796875 C 19.625 -18.890625 20.894531 -17.625 21.8125 -16 C 22.726562 -14.375 23.1875 -12.539062 23.1875 -10.5 C 23.1875 -8.445312 22.726562 -6.609375 21.8125 -4.984375 C 20.894531 -3.359375 19.625 -2.085938 18 -1.171875 C 16.375 -0.253906 14.550781 0.203125 12.53125 0.203125 Z M 12.53125 -2.3125 C 14.019531 -2.3125 15.351562 -2.648438 16.53125 -3.328125 C 17.71875 -4.003906 18.644531 -4.96875 19.3125 -6.21875 C 19.976562 -7.46875 20.3125 -8.894531 20.3125 -10.5 C 20.3125 -12.09375 19.976562 -13.515625 19.3125 -14.765625 C 18.644531 -16.015625 17.71875 -16.976562 16.53125 -17.65625 C 15.351562 -18.332031 14.019531 -18.671875 12.53125 -18.671875 C 11.039062 -18.671875 9.703125 -18.332031 8.515625 -17.65625 C 7.335938 -16.976562 6.40625 -16.015625 5.71875 -14.765625 C 5.039062 -13.515625 4.703125 -12.09375 4.703125 -10.5 C 4.703125 -8.894531 5.039062 -7.46875 5.71875 -6.21875 C 6.40625 -4.96875 7.335938 -4.003906 8.515625 -3.328125 C 9.703125 -2.648438 11.039062 -2.3125 12.53125 -2.3125 Z M 12.53125 -2.3125 "/></g></g><g style="fill:#ffffff;fill-opacity:1;"><g transform="translate(52.563802, 309.125222)"><path style="stroke:none" d="M 6.671875 -16.875 C 7.328125 -18.289062 8.3125 -19.359375 9.625 -20.078125 C 10.945312 -20.796875 12.582031 -21.15625 14.53125 -21.15625 L 14.53125 -18.390625 L 13.84375 -18.4375 C 11.632812 -18.4375 9.90625 -17.753906 8.65625 -16.390625 C 7.40625 -15.035156 6.78125 -13.132812 6.78125 -10.6875 L 6.78125 0 L 3.953125 0 L 3.953125 -20.984375 L 6.671875 -20.984375 Z M 6.671875 -16.875 "/></g></g><g style="fill:#d0a944;fill-opacity:1;"><g transform="translate(431.1804, 318.006411)"><path style="stroke:none" d="M 6.796875 -6.609375 C 7.773438 -6.609375 8.582031 -6.28125 9.21875 -5.625 C 9.851562 -4.96875 10.171875 -4.148438 10.171875 -3.171875 C 10.171875 -2.671875 10.09375 -2.125 9.9375 -1.53125 C 9.789062 -0.9375 9.570312 -0.253906 9.28125 0.515625 L 6.609375 9.28125 L 3.5625 9.28125 L 5.71875 0.0625 C 5.039062 -0.144531 4.488281 -0.535156 4.0625 -1.109375 C 3.644531 -1.679688 3.4375 -2.367188 3.4375 -3.171875 C 3.4375 -4.148438 3.753906 -4.96875 4.390625 -5.625 C 5.023438 -6.28125 5.828125 -6.609375 6.796875 -6.609375 Z M 6.796875 -6.609375 "/></g></g><g style="fill:#d0a944;fill-opacity:1;"><g transform="translate(444.273967, 318.006411)"><path style="stroke:none" d="M 21.734375 -26.625 C 24.660156 -26.625 27.253906 -26.070312 29.515625 -24.96875 C 31.785156 -23.875 33.554688 -22.316406 34.828125 -20.296875 C 36.097656 -18.285156 36.734375 -15.945312 36.734375 -13.28125 C 36.734375 -10.570312 36.078125 -8.175781 34.765625 -6.09375 C 33.453125 -4.019531 31.640625 -2.421875 29.328125 -1.296875 C 27.023438 -0.179688 24.429688 0.375 21.546875 0.375 C 15.660156 0.375 11.148438 -1.5625 8.015625 -5.4375 C 4.878906 -9.3125 3.3125 -14.785156 3.3125 -21.859375 C 3.3125 -26.816406 4.15625 -31.007812 5.84375 -34.4375 C 7.539062 -37.875 9.914062 -40.472656 12.96875 -42.234375 C 16.019531 -43.992188 19.578125 -44.875 23.640625 -44.875 C 28.046875 -44.875 31.566406 -44.066406 34.203125 -42.453125 L 32.359375 -38.765625 C 30.234375 -40.171875 27.347656 -40.875 23.703125 -40.875 C 18.785156 -40.875 14.925781 -39.316406 12.125 -36.203125 C 9.332031 -33.085938 7.9375 -28.5625 7.9375 -22.625 C 7.9375 -21.570312 8.003906 -20.363281 8.140625 -19 C 9.234375 -21.414062 10.988281 -23.289062 13.40625 -24.625 C 15.820312 -25.957031 18.597656 -26.625 21.734375 -26.625 Z M 21.359375 -3.5 C 24.578125 -3.5 27.191406 -4.375 29.203125 -6.125 C 31.210938 -7.882812 32.21875 -10.226562 32.21875 -13.15625 C 32.21875 -16.082031 31.210938 -18.410156 29.203125 -20.140625 C 27.191406 -21.878906 24.472656 -22.75 21.046875 -22.75 C 18.796875 -22.75 16.8125 -22.328125 15.09375 -21.484375 C 13.375 -20.640625 12.023438 -19.472656 11.046875 -17.984375 C 10.078125 -16.503906 9.59375 -14.851562 9.59375 -13.03125 C 9.59375 -11.332031 10.046875 -9.765625 10.953125 -8.328125 C 11.867188 -6.890625 13.21875 -5.722656 15 -4.828125 C 16.78125 -3.941406 18.898438 -3.5 21.359375 -3.5 Z M 21.359375 -3.5 "/></g></g><g style="fill:#d0a944;fill-opacity:1;"><g transform="translate(482.601392, 318.006411)"><path style="stroke:none" d="M 21.046875 0.375 C 17.609375 0.375 14.539062 -0.53125 11.84375 -2.34375 C 9.15625 -4.164062 7.0625 -6.78125 5.5625 -10.1875 C 4.0625 -13.601562 3.3125 -17.625 3.3125 -22.25 C 3.3125 -26.863281 4.0625 -30.875 5.5625 -34.28125 C 7.0625 -37.695312 9.15625 -40.316406 11.84375 -42.140625 C 14.539062 -43.960938 17.609375 -44.875 21.046875 -44.875 C 24.472656 -44.875 27.53125 -43.960938 30.21875 -42.140625 C 32.914062 -40.316406 35.023438 -37.695312 36.546875 -34.28125 C 38.078125 -30.875 38.84375 -26.863281 38.84375 -22.25 C 38.84375 -17.625 38.078125 -13.601562 36.546875 -10.1875 C 35.023438 -6.78125 32.914062 -4.164062 30.21875 -2.34375 C 27.53125 -0.53125 24.472656 0.375 21.046875 0.375 Z M 21.046875 -3.8125 C 23.628906 -3.8125 25.90625 -4.53125 27.875 -5.96875 C 29.84375 -7.414062 31.378906 -9.515625 32.484375 -12.265625 C 33.585938 -15.023438 34.140625 -18.351562 34.140625 -22.25 C 34.140625 -26.144531 33.585938 -29.46875 32.484375 -32.21875 C 31.378906 -34.976562 29.84375 -37.078125 27.875 -38.515625 C 25.90625 -39.960938 23.628906 -40.6875 21.046875 -40.6875 C 18.453125 -40.6875 16.171875 -39.960938 14.203125 -38.515625 C 12.234375 -37.078125 10.695312 -34.976562 9.59375 -32.21875 C 8.488281 -29.46875 7.9375 -26.144531 7.9375 -22.25 C 7.9375 -18.351562 8.488281 -15.023438 9.59375 -12.265625 C 10.695312 -9.515625 12.234375 -7.414062 14.203125 -5.96875 C 16.171875 -4.53125 18.453125 -3.8125 21.046875 -3.8125 Z M 21.046875 -3.8125 "/></g></g></g></svg>